%TF.GenerationSoftware,KiCad,Pcbnew,9.0.4*%
%TF.CreationDate,2025-10-26T23:37:27-04:00*%
%TF.ProjectId,display,64697370-6c61-4792-9e6b-696361645f70,0.1.0*%
%TF.SameCoordinates,Original*%
%TF.FileFunction,Copper,L4,Bot*%
%TF.FilePolarity,Positive*%
%FSLAX46Y46*%
G04 Gerber Fmt 4.6, Leading zero omitted, Abs format (unit mm)*
G04 Created by KiCad (PCBNEW 9.0.4) date 2025-10-26 23:37:27*
%MOMM*%
%LPD*%
G01*
G04 APERTURE LIST*
G04 Aperture macros list*
%AMRoundRect*
0 Rectangle with rounded corners*
0 $1 Rounding radius*
0 $2 $3 $4 $5 $6 $7 $8 $9 X,Y pos of 4 corners*
0 Add a 4 corners polygon primitive as box body*
4,1,4,$2,$3,$4,$5,$6,$7,$8,$9,$2,$3,0*
0 Add four circle primitives for the rounded corners*
1,1,$1+$1,$2,$3*
1,1,$1+$1,$4,$5*
1,1,$1+$1,$6,$7*
1,1,$1+$1,$8,$9*
0 Add four rect primitives between the rounded corners*
20,1,$1+$1,$2,$3,$4,$5,0*
20,1,$1+$1,$4,$5,$6,$7,0*
20,1,$1+$1,$6,$7,$8,$9,0*
20,1,$1+$1,$8,$9,$2,$3,0*%
G04 Aperture macros list end*
%TA.AperFunction,SMDPad,CuDef*%
%ADD10R,2.260600X2.590800*%
%TD*%
%TA.AperFunction,ComponentPad*%
%ADD11RoundRect,0.250001X1.099999X-1.099999X1.099999X1.099999X-1.099999X1.099999X-1.099999X-1.099999X0*%
%TD*%
%TA.AperFunction,ComponentPad*%
%ADD12C,2.700000*%
%TD*%
%TA.AperFunction,ComponentPad*%
%ADD13RoundRect,0.250000X-0.625000X0.350000X-0.625000X-0.350000X0.625000X-0.350000X0.625000X0.350000X0*%
%TD*%
%TA.AperFunction,ComponentPad*%
%ADD14O,1.750000X1.200000*%
%TD*%
%TA.AperFunction,ViaPad*%
%ADD15C,0.600000*%
%TD*%
%TA.AperFunction,ViaPad*%
%ADD16C,1.000000*%
%TD*%
%TA.AperFunction,Conductor*%
%ADD17C,0.500000*%
%TD*%
G04 APERTURE END LIST*
D10*
%TO.P,C88,1*%
%TO.N,VDD*%
X83481400Y-37250000D03*
%TO.P,C88,2*%
%TO.N,GND*%
X89018600Y-37250000D03*
%TD*%
D11*
%TO.P,J1,1,Pin_1*%
%TO.N,VDD*%
X101000000Y-67000000D03*
D12*
%TO.P,J1,2,Pin_2*%
%TO.N,GND*%
X101000000Y-63040000D03*
%TD*%
D10*
%TO.P,C86,1*%
%TO.N,VDD*%
X35731400Y-53250000D03*
%TO.P,C86,2*%
%TO.N,GND*%
X41268600Y-53250000D03*
%TD*%
%TO.P,C85,1*%
%TO.N,VDD*%
X35731400Y-21500000D03*
%TO.P,C85,2*%
%TO.N,GND*%
X41268600Y-21500000D03*
%TD*%
%TO.P,C90,1*%
%TO.N,VDD*%
X71731400Y-21750000D03*
%TO.P,C90,2*%
%TO.N,GND*%
X77268600Y-21750000D03*
%TD*%
%TO.P,C87,1*%
%TO.N,VDD*%
X51481400Y-37500000D03*
%TO.P,C87,2*%
%TO.N,GND*%
X57018600Y-37500000D03*
%TD*%
%TO.P,C82,1*%
%TO.N,VDD*%
X57018600Y-73500000D03*
%TO.P,C82,2*%
%TO.N,GND*%
X51481400Y-73500000D03*
%TD*%
%TO.P,C81,1*%
%TO.N,VDD*%
X88268600Y-73500000D03*
%TO.P,C81,2*%
%TO.N,GND*%
X82731400Y-73500000D03*
%TD*%
%TO.P,C83,1*%
%TO.N,VDD*%
X71731400Y-53500000D03*
%TO.P,C83,2*%
%TO.N,GND*%
X77268600Y-53500000D03*
%TD*%
D13*
%TO.P,J2,1,Pin_1*%
%TO.N,DIN1*%
X8825000Y-53000000D03*
D14*
%TO.P,J2,2,Pin_2*%
%TO.N,DIN2*%
X8825000Y-55000000D03*
%TO.P,J2,3,Pin_3*%
%TO.N,DIN3*%
X8825000Y-57000000D03*
%TO.P,J2,4,Pin_4*%
%TO.N,DIN4*%
X8825000Y-59000000D03*
%TO.P,J2,5,Pin_5*%
%TO.N,DIN5*%
X8825000Y-61000000D03*
%TO.P,J2,6,Pin_6*%
%TO.N,DIN6*%
X8825000Y-63000000D03*
%TO.P,J2,7,Pin_7*%
%TO.N,DIN7*%
X8825000Y-65000000D03*
%TO.P,J2,8,Pin_8*%
%TO.N,DIN8*%
X8825000Y-67000000D03*
%TD*%
D10*
%TO.P,C89,1*%
%TO.N,VDD*%
X27768600Y-37500000D03*
%TO.P,C89,2*%
%TO.N,GND*%
X22231400Y-37500000D03*
%TD*%
%TO.P,C84,1*%
%TO.N,VDD*%
X22231400Y-73500000D03*
%TO.P,C84,2*%
%TO.N,GND*%
X27768600Y-73500000D03*
%TD*%
D15*
%TO.N,GND*%
X61498750Y-20050000D03*
X73552500Y-28000000D03*
X77552500Y-28000000D03*
X29552500Y-76000000D03*
X61700000Y-46900000D03*
X65000000Y-61500000D03*
X85552500Y-28000000D03*
X61700000Y-54900000D03*
X85552500Y-44000000D03*
X41700000Y-38900000D03*
X29700000Y-22900000D03*
X21700000Y-22900000D03*
X37552500Y-28000000D03*
X45552500Y-44000000D03*
X85700000Y-30900000D03*
X53552500Y-44000000D03*
X17567500Y-65500000D03*
X57700000Y-54900000D03*
X41700000Y-62900000D03*
X49000000Y-33500000D03*
X85552500Y-36000000D03*
X45552500Y-68000000D03*
X17500000Y-20050000D03*
X65700000Y-70900000D03*
X61552500Y-60000000D03*
X49000000Y-61500000D03*
X45498750Y-20050000D03*
X85700000Y-46900000D03*
D16*
X20000000Y-37500000D03*
D15*
X73552500Y-36000000D03*
X65000000Y-65500000D03*
X85552500Y-76000000D03*
X49000000Y-53500000D03*
X89552500Y-52000000D03*
X25700000Y-30900000D03*
D16*
X74884300Y-53500000D03*
D15*
X53552500Y-52000000D03*
X25552500Y-76000000D03*
X73700000Y-38900000D03*
X81700000Y-54900000D03*
X69552500Y-60000000D03*
X85700000Y-54900000D03*
X41552500Y-68000000D03*
X85498750Y-20050000D03*
X21498750Y-20050000D03*
X53552500Y-68000000D03*
X33000000Y-45500000D03*
X57498750Y-20050000D03*
X17553750Y-76000000D03*
X57700000Y-14900000D03*
X85552500Y-52000000D03*
X49700000Y-22900000D03*
X37552500Y-68000000D03*
X25552500Y-36000000D03*
X57700000Y-30900000D03*
X17700000Y-46900000D03*
X89552500Y-28000000D03*
X25700000Y-46900000D03*
X25700000Y-54900000D03*
X65000000Y-17500000D03*
X25700000Y-70900000D03*
X37700000Y-22900000D03*
X57700000Y-62900000D03*
X53700000Y-62900000D03*
X49000000Y-77500000D03*
X45552500Y-76000000D03*
X17567500Y-33500000D03*
X37552500Y-60000000D03*
X49700000Y-46900000D03*
X77552500Y-68000000D03*
X77700000Y-14900000D03*
X29498750Y-20050000D03*
D16*
X25500000Y-73500000D03*
D15*
X57552500Y-52000000D03*
X49000000Y-21500000D03*
X29552500Y-44000000D03*
X73700000Y-62900000D03*
X33000000Y-37500000D03*
X41700000Y-30900000D03*
X77700000Y-38900000D03*
X45700000Y-14900000D03*
X53552500Y-60000000D03*
X73700000Y-46900000D03*
X81000000Y-17500000D03*
X69552500Y-68000000D03*
X33000000Y-41500000D03*
X45700000Y-62900000D03*
X21700000Y-14900000D03*
X81000000Y-69500000D03*
X89700000Y-62900000D03*
X69552500Y-76000000D03*
D16*
X43481400Y-21500000D03*
D15*
X25498750Y-20050000D03*
X29552500Y-52000000D03*
X53700000Y-14900000D03*
X29700000Y-62900000D03*
X33700000Y-14900000D03*
X29552500Y-36000000D03*
X65000000Y-45500000D03*
X61552500Y-28000000D03*
X73552500Y-52000000D03*
X93700000Y-46900000D03*
X73498750Y-20050000D03*
X93700000Y-38900000D03*
X45700000Y-22900000D03*
X89552500Y-68000000D03*
X17700000Y-30900000D03*
X89700000Y-46900000D03*
D16*
X75018600Y-21500000D03*
D15*
X45700000Y-30900000D03*
X17567500Y-57500000D03*
X49000000Y-37500000D03*
X93552500Y-76000000D03*
X65700000Y-38900000D03*
X29552500Y-68000000D03*
X33000000Y-57500000D03*
X49000000Y-41500000D03*
X57700000Y-70900000D03*
X65000000Y-29500000D03*
X53552500Y-76000000D03*
X65000000Y-77500000D03*
X29552500Y-60000000D03*
X65000000Y-21500000D03*
X33000000Y-65500000D03*
X81000000Y-57500000D03*
X21552500Y-44000000D03*
X93700000Y-70900000D03*
X93552500Y-36000000D03*
X45552500Y-52000000D03*
X81000000Y-33500000D03*
X77700000Y-30900000D03*
X73700000Y-30900000D03*
X37700000Y-30900000D03*
X33700000Y-22900000D03*
X89498750Y-20050000D03*
X89552500Y-44000000D03*
X17567500Y-41500000D03*
X81000000Y-37500000D03*
X45552500Y-60000000D03*
X33000000Y-17500000D03*
X61700000Y-14900000D03*
X37700000Y-14900000D03*
X53700000Y-38900000D03*
X81700000Y-22900000D03*
X77700000Y-46900000D03*
X53552500Y-36000000D03*
X41552500Y-44000000D03*
X53498750Y-20050000D03*
X29700000Y-46900000D03*
X77552500Y-60000000D03*
X81700000Y-30900000D03*
X49000000Y-69500000D03*
X45700000Y-46900000D03*
X73552500Y-60000000D03*
X17700000Y-62900000D03*
X93552500Y-68000000D03*
X81700000Y-38900000D03*
X33700000Y-46900000D03*
X29700000Y-70900000D03*
X85700000Y-14900000D03*
X77552500Y-36000000D03*
X93700000Y-14900000D03*
X33700000Y-30900000D03*
X37700000Y-70900000D03*
X65000000Y-57500000D03*
X17553750Y-52000000D03*
X89700000Y-54900000D03*
X65700000Y-46900000D03*
X49700000Y-62900000D03*
X93700000Y-54900000D03*
X37498750Y-20050000D03*
X93552500Y-44000000D03*
X81000000Y-65500000D03*
X81000000Y-45500000D03*
X65000000Y-33500000D03*
X21700000Y-30900000D03*
X65700000Y-30900000D03*
X93552500Y-60000000D03*
X81700000Y-14900000D03*
X61700000Y-38900000D03*
X49000000Y-17500000D03*
X65000000Y-73500000D03*
X57700000Y-46900000D03*
X45552500Y-36000000D03*
X69552500Y-44000000D03*
D16*
X84750000Y-73500000D03*
D15*
X37700000Y-38900000D03*
X21552500Y-68000000D03*
X49000000Y-45500000D03*
X25700000Y-22900000D03*
X25552500Y-28000000D03*
X45700000Y-38900000D03*
X41552500Y-28000000D03*
D16*
X59250000Y-37500000D03*
D15*
X73552500Y-68000000D03*
X93552500Y-52000000D03*
X57552500Y-60000000D03*
X61552500Y-68000000D03*
X29700000Y-38900000D03*
X17700000Y-38900000D03*
X85552500Y-60000000D03*
X49700000Y-70900000D03*
X41552500Y-60000000D03*
X33700000Y-38900000D03*
X33000000Y-25500000D03*
X33700000Y-62900000D03*
X93700000Y-22900000D03*
X17700000Y-54900000D03*
X69700000Y-70900000D03*
X57552500Y-44000000D03*
X61700000Y-70900000D03*
D16*
X43600000Y-53400000D03*
D15*
X33000000Y-73500000D03*
X61552500Y-76000000D03*
X77552500Y-76000000D03*
X53552500Y-28000000D03*
X65700000Y-54900000D03*
X85700000Y-22900000D03*
X65000000Y-53500000D03*
X49700000Y-38900000D03*
X33000000Y-49500000D03*
X65700000Y-14900000D03*
X49000000Y-65500000D03*
X21552500Y-76000000D03*
X45700000Y-54900000D03*
X17700000Y-14900000D03*
D16*
X49268600Y-73500000D03*
D15*
X37700000Y-54900000D03*
X69552500Y-36000000D03*
X61700000Y-30900000D03*
X89700000Y-30900000D03*
X93500000Y-17500000D03*
X69552500Y-28000000D03*
X61552500Y-52000000D03*
X17700000Y-22900000D03*
X41552500Y-76000000D03*
X53700000Y-30900000D03*
X69700000Y-62900000D03*
X17553750Y-68000000D03*
X45700000Y-70900000D03*
X49000000Y-57500000D03*
X21552500Y-60000000D03*
X33700000Y-54900000D03*
X69700000Y-30900000D03*
X17553750Y-60000000D03*
X25700000Y-38900000D03*
X57552500Y-68000000D03*
X61552500Y-36000000D03*
X81000000Y-25500000D03*
X69700000Y-54900000D03*
X65000000Y-37500000D03*
X49000000Y-25500000D03*
X93500000Y-25500000D03*
X93500000Y-57500000D03*
X81000000Y-21500000D03*
X73700000Y-54900000D03*
X53700000Y-54900000D03*
X45552500Y-28000000D03*
X77700000Y-62900000D03*
X33000000Y-21500000D03*
X17567500Y-73500000D03*
X17553750Y-28000000D03*
X81700000Y-62900000D03*
X33000000Y-61500000D03*
X21700000Y-62900000D03*
X17553750Y-36000000D03*
X89700000Y-70900000D03*
X17553750Y-44000000D03*
X25552500Y-60000000D03*
X17567500Y-49500000D03*
X81000000Y-61500000D03*
X73700000Y-70900000D03*
X33000000Y-33500000D03*
X49700000Y-14900000D03*
X73552500Y-44000000D03*
X85552500Y-68000000D03*
X77552500Y-44000000D03*
X73700000Y-22900000D03*
X93652500Y-49500000D03*
X93498750Y-20050000D03*
X61700000Y-22900000D03*
X53700000Y-46900000D03*
X57700000Y-22900000D03*
X41700000Y-70900000D03*
X21552500Y-28000000D03*
X29552500Y-28000000D03*
X93700000Y-62900000D03*
X17567500Y-25500000D03*
X53700000Y-22900000D03*
X33000000Y-77500000D03*
X37552500Y-52000000D03*
X37552500Y-44000000D03*
X65000000Y-69500000D03*
X21700000Y-54900000D03*
X53700000Y-70900000D03*
X85700000Y-38900000D03*
X81000000Y-77500000D03*
X25552500Y-68000000D03*
X69700000Y-14900000D03*
X33700000Y-70900000D03*
X21700000Y-70900000D03*
X69498750Y-20050000D03*
X37552500Y-76000000D03*
D16*
X91500000Y-37500000D03*
D15*
X37700000Y-62900000D03*
X25700000Y-62900000D03*
X37552500Y-36000000D03*
X81700000Y-46900000D03*
X49000000Y-49500000D03*
X93700000Y-30900000D03*
X81000000Y-53500000D03*
X93652500Y-65500000D03*
X73552500Y-76000000D03*
X65000000Y-25500000D03*
X41700000Y-14900000D03*
X65700000Y-22900000D03*
X25552500Y-52000000D03*
X73700000Y-14900000D03*
X69700000Y-46900000D03*
X93500000Y-33500000D03*
X33000000Y-53500000D03*
X33000000Y-29500000D03*
X49700000Y-30900000D03*
X85700000Y-62900000D03*
X17700000Y-70900000D03*
X69700000Y-22900000D03*
X61552500Y-44000000D03*
X33000000Y-69500000D03*
X81000000Y-49500000D03*
X41633750Y-36000000D03*
X81000000Y-41500000D03*
X25700000Y-14900000D03*
X61700000Y-62900000D03*
X17567500Y-17500000D03*
X69700000Y-38900000D03*
X21700000Y-46900000D03*
X93500000Y-41500000D03*
X29700000Y-30900000D03*
X89552500Y-76000000D03*
X37700000Y-46900000D03*
X65000000Y-41500000D03*
X89552500Y-60000000D03*
X85700000Y-70900000D03*
X93500000Y-73500000D03*
X65700000Y-62900000D03*
X49000000Y-29500000D03*
X69552500Y-52000000D03*
X25552500Y-44000000D03*
X77700000Y-70900000D03*
X93552500Y-28000000D03*
X41700000Y-46900000D03*
X49700000Y-54900000D03*
X89700000Y-14900000D03*
X21552500Y-52000000D03*
X57552500Y-28000000D03*
X29700000Y-54900000D03*
X81000000Y-29500000D03*
X57552500Y-76000000D03*
X89700000Y-22900000D03*
X65000000Y-49500000D03*
X29700000Y-14900000D03*
%TO.N,VDD*%
X37652500Y-58900000D03*
X69600000Y-16000000D03*
X25652500Y-26900000D03*
X93600000Y-64000000D03*
X45652500Y-26900000D03*
X73600000Y-40000000D03*
X49598750Y-18950000D03*
X33600000Y-24000000D03*
X37600000Y-56000000D03*
X45652500Y-58900000D03*
X37600000Y-16000000D03*
X65652500Y-42900000D03*
X29600000Y-40000000D03*
X53600000Y-32000000D03*
X81589416Y-71093556D03*
X93652500Y-34900000D03*
X85652500Y-58900000D03*
X29652500Y-50900000D03*
X25600000Y-32000000D03*
X29598750Y-18950000D03*
X41600000Y-16000000D03*
X37600000Y-32000000D03*
X37652500Y-42900000D03*
X17598750Y-18950000D03*
X37652500Y-74900000D03*
X21600000Y-32000000D03*
X73600000Y-48000000D03*
X81652500Y-50900000D03*
X61600000Y-16000000D03*
X49652500Y-26900000D03*
X73652500Y-58900000D03*
X69600000Y-56000000D03*
X29652500Y-66900000D03*
X21600000Y-16000000D03*
X61652500Y-66900000D03*
X29600000Y-24000000D03*
X77600000Y-72000000D03*
X77600000Y-56000000D03*
X49600000Y-56000000D03*
X81598750Y-18950000D03*
X93652500Y-74900000D03*
X57600000Y-32000000D03*
X93652500Y-66900000D03*
X61598750Y-18950000D03*
D16*
X90500000Y-73500000D03*
D15*
X73600000Y-56000000D03*
X45652500Y-42900000D03*
X17652500Y-74900000D03*
X81652500Y-66900000D03*
X41600000Y-24000000D03*
X21600000Y-40000000D03*
X21652500Y-42900000D03*
X25600000Y-64000000D03*
X93652500Y-50900000D03*
X33600000Y-64000000D03*
X73600000Y-72000000D03*
X65600000Y-40000000D03*
X57652500Y-34900000D03*
X81600000Y-16000000D03*
X53652500Y-26900000D03*
X53600000Y-56000000D03*
X81652500Y-26900000D03*
X65600000Y-72000000D03*
X65652500Y-74900000D03*
X69600000Y-24000000D03*
X21652500Y-50900000D03*
X61600000Y-24000000D03*
X49652500Y-42900000D03*
X61600000Y-64000000D03*
X57652500Y-66900000D03*
X81600000Y-56000000D03*
X57600000Y-40000000D03*
X69652500Y-58900000D03*
X85600000Y-32000000D03*
X93652500Y-58900000D03*
X69600000Y-72000000D03*
X77652500Y-34900000D03*
X33652500Y-66900000D03*
X81500000Y-75500000D03*
X41600000Y-64000000D03*
X85652500Y-66900000D03*
X41652500Y-50900000D03*
X41652500Y-42900000D03*
X89652500Y-58900000D03*
X93600000Y-48000000D03*
X41600000Y-48000000D03*
X49600000Y-48000000D03*
X41652500Y-34900000D03*
X25600000Y-56000000D03*
X53600000Y-72000000D03*
X45598750Y-18950000D03*
X69652500Y-34900000D03*
X17600000Y-40000000D03*
X69652500Y-26900000D03*
X65652500Y-26900000D03*
X85600000Y-48000000D03*
X61600000Y-40000000D03*
X37600000Y-64000000D03*
X85652500Y-34900000D03*
X61600000Y-48000000D03*
X37652500Y-34900000D03*
X57600000Y-56000000D03*
X57600000Y-24000000D03*
X89600000Y-56000000D03*
X49652500Y-50900000D03*
X57652500Y-58900000D03*
X85600000Y-72000000D03*
X69600000Y-48000000D03*
X17652500Y-42900000D03*
X65600000Y-56000000D03*
X65600000Y-64000000D03*
X89652500Y-66900000D03*
X17652500Y-66900000D03*
X49600000Y-72000000D03*
X89600000Y-64000000D03*
X77652500Y-66900000D03*
X45652500Y-66900000D03*
X53652500Y-50900000D03*
X77598750Y-18950000D03*
X41598750Y-18950000D03*
X21652500Y-66900000D03*
X73600000Y-32000000D03*
X73600000Y-16000000D03*
X25652500Y-66900000D03*
X49600000Y-40000000D03*
X85652500Y-50900000D03*
X17652500Y-50900000D03*
X41652500Y-74900000D03*
X93600000Y-40000000D03*
X33600000Y-40000000D03*
X33652500Y-34900000D03*
X49600000Y-24000000D03*
X57600000Y-16000000D03*
X61600000Y-72000000D03*
X73652500Y-50900000D03*
X93600000Y-56000000D03*
X81652500Y-34900000D03*
X37600000Y-24000000D03*
X77600000Y-48000000D03*
X57598750Y-18950000D03*
X45600000Y-40000000D03*
X61600000Y-32000000D03*
D16*
X53615700Y-37500000D03*
D15*
X73652500Y-26900000D03*
X49652500Y-74900000D03*
X33600000Y-32000000D03*
X73652500Y-42900000D03*
X21600000Y-64000000D03*
X85598750Y-18950000D03*
X29600000Y-72000000D03*
X41600000Y-72000000D03*
X93600000Y-24000000D03*
X33600000Y-56000000D03*
X49600000Y-64000000D03*
X57652500Y-50900000D03*
X81652500Y-42900000D03*
X89652500Y-26900000D03*
X77652500Y-42900000D03*
X73652500Y-34900000D03*
X33652500Y-74900000D03*
X45600000Y-64000000D03*
X81652500Y-58900000D03*
X29652500Y-26900000D03*
X73652500Y-74900000D03*
X17600000Y-16000000D03*
X25652500Y-58900000D03*
D16*
X85865700Y-37500000D03*
D15*
X61652500Y-50900000D03*
X45600000Y-56000000D03*
X29652500Y-58900000D03*
X81600000Y-48000000D03*
X29652500Y-74900000D03*
X77600000Y-40000000D03*
X33652500Y-58900000D03*
X53652500Y-66900000D03*
X57652500Y-26900000D03*
X89652500Y-34900000D03*
X41652500Y-66900000D03*
X29652500Y-42900000D03*
X61600000Y-56000000D03*
X17600000Y-24000000D03*
X49652500Y-58900000D03*
X53600000Y-48000000D03*
X41652500Y-58900000D03*
X45600000Y-48000000D03*
X21600000Y-48000000D03*
X85652500Y-74900000D03*
X25598750Y-18950000D03*
X65600000Y-48000000D03*
X65652500Y-50900000D03*
X61652500Y-34900000D03*
X33600000Y-16000000D03*
X93652500Y-26900000D03*
X73600000Y-64000000D03*
X53600000Y-24000000D03*
X89600000Y-32000000D03*
X37600000Y-48000000D03*
X25600000Y-16000000D03*
X29652500Y-34900000D03*
X85600000Y-56000000D03*
X57652500Y-42900000D03*
D16*
X54750000Y-73500000D03*
D15*
X81600000Y-24000000D03*
X69652500Y-50900000D03*
X53600000Y-64000000D03*
X17600000Y-48000000D03*
X77652500Y-26900000D03*
X29600000Y-32000000D03*
X81600000Y-64000000D03*
X37600000Y-40000000D03*
X17600000Y-72000000D03*
X65600000Y-16000000D03*
X89600000Y-24000000D03*
D16*
X25481400Y-37500000D03*
D15*
X25652500Y-74900000D03*
X25600000Y-40000000D03*
X69600000Y-64000000D03*
X37652500Y-50900000D03*
X25600000Y-72000000D03*
X41600000Y-40000000D03*
X69600000Y-32000000D03*
X65652500Y-66900000D03*
X45652500Y-74900000D03*
X45600000Y-24000000D03*
X57600000Y-48000000D03*
X33652500Y-26900000D03*
X21600000Y-24000000D03*
X37652500Y-66900000D03*
X93600000Y-72000000D03*
X29600000Y-64000000D03*
X77600000Y-32000000D03*
X61652500Y-74900000D03*
X93598750Y-18950000D03*
X65600000Y-32000000D03*
X89600000Y-48000000D03*
X37652500Y-26900000D03*
X89598750Y-18950000D03*
X89600000Y-16000000D03*
X93600000Y-16000000D03*
X69598750Y-18950000D03*
D16*
X69518600Y-21500000D03*
D15*
X25600000Y-24000000D03*
X45600000Y-16000000D03*
D16*
X37981400Y-21500000D03*
D15*
X89600000Y-40000000D03*
X81600000Y-32000000D03*
X45600000Y-32000000D03*
D16*
X20000000Y-73500000D03*
D15*
X85600000Y-64000000D03*
X25652500Y-42900000D03*
X29600000Y-48000000D03*
X21600000Y-56000000D03*
X73600000Y-24000000D03*
X85652500Y-26900000D03*
X89652500Y-50900000D03*
X45652500Y-50900000D03*
X61652500Y-42900000D03*
X53598750Y-18950000D03*
X17652500Y-34900000D03*
X69652500Y-66900000D03*
X77600000Y-24000000D03*
X65600000Y-24000000D03*
X49600000Y-16000000D03*
X77600000Y-64000000D03*
X73598750Y-18950000D03*
X29600000Y-16000000D03*
X45652500Y-34900000D03*
D16*
X69500000Y-53500000D03*
D15*
X41600000Y-32000000D03*
X33600000Y-48000000D03*
X53652500Y-58900000D03*
X61652500Y-58900000D03*
X17600000Y-64000000D03*
X41652500Y-26900000D03*
X53600000Y-16000000D03*
X85600000Y-16000000D03*
X41600000Y-56000000D03*
X21652500Y-34900000D03*
X17652500Y-58900000D03*
X85600000Y-24000000D03*
X69652500Y-42900000D03*
X21652500Y-58900000D03*
X33652500Y-42900000D03*
X45600000Y-72000000D03*
X21652500Y-26900000D03*
X61652500Y-26900000D03*
X53652500Y-42900000D03*
X65652500Y-58900000D03*
X25652500Y-34900000D03*
X77600000Y-16000000D03*
X69600000Y-40000000D03*
X17600000Y-56000000D03*
X77652500Y-50900000D03*
X77652500Y-74900000D03*
X89652500Y-42900000D03*
X65652500Y-34900000D03*
X57600000Y-64000000D03*
X81600000Y-40000000D03*
X93600000Y-32000000D03*
X73652500Y-66900000D03*
X49600000Y-32000000D03*
X37598750Y-18950000D03*
X53652500Y-74900000D03*
X33598750Y-18950000D03*
X65598750Y-18950000D03*
X25600000Y-48000000D03*
X33652500Y-50900000D03*
X85652500Y-42900000D03*
X17600000Y-32000000D03*
X69652500Y-74900000D03*
X77652500Y-58900000D03*
X33600000Y-72000000D03*
D16*
X37750000Y-53500000D03*
D15*
X29600000Y-56000000D03*
X49652500Y-66900000D03*
X49652500Y-34900000D03*
X17652500Y-26900000D03*
X53652500Y-34900000D03*
X21598750Y-18950000D03*
X37600000Y-72000000D03*
X53600000Y-40000000D03*
X85600000Y-40000000D03*
X25652500Y-50900000D03*
X93652500Y-42900000D03*
%TD*%
D17*
%TO.N,GND*%
X20000000Y-37500000D02*
X22231400Y-37500000D01*
X25500000Y-73500000D02*
X27731400Y-73500000D01*
X82731400Y-73500000D02*
X84750000Y-73500000D01*
X43481400Y-21500000D02*
X41250000Y-21500000D01*
X91500000Y-37500000D02*
X89268600Y-37500000D01*
X74884300Y-53500000D02*
X77115700Y-53500000D01*
X59250000Y-37500000D02*
X57018600Y-37500000D01*
X43600000Y-53400000D02*
X41368600Y-53400000D01*
X75018600Y-21500000D02*
X77250000Y-21500000D01*
X49268600Y-73500000D02*
X51500000Y-73500000D01*
%TO.N,VDD*%
X37981400Y-21500000D02*
X35750000Y-21500000D01*
X85865700Y-37500000D02*
X83634300Y-37500000D01*
X69500000Y-53500000D02*
X71731400Y-53500000D01*
X37750000Y-53500000D02*
X35518600Y-53500000D01*
X69518600Y-21500000D02*
X71750000Y-21500000D01*
X25481400Y-37500000D02*
X27712800Y-37500000D01*
X20000000Y-73500000D02*
X22231400Y-73500000D01*
X90500000Y-73500000D02*
X88268600Y-73500000D01*
X53615700Y-37500000D02*
X51384300Y-37500000D01*
X54750000Y-73500000D02*
X56981400Y-73500000D01*
%TD*%
M02*
