%TF.GenerationSoftware,KiCad,Pcbnew,9.0.4*%
%TF.CreationDate,2025-10-21T18:14:30-04:00*%
%TF.ProjectId,display,64697370-6c61-4792-9e6b-696361645f70,0.1.0*%
%TF.SameCoordinates,Original*%
%TF.FileFunction,Soldermask,Bot*%
%TF.FilePolarity,Negative*%
%FSLAX46Y46*%
G04 Gerber Fmt 4.6, Leading zero omitted, Abs format (unit mm)*
G04 Created by KiCad (PCBNEW 9.0.4) date 2025-10-21 18:14:30*
%MOMM*%
%LPD*%
G01*
G04 APERTURE LIST*
G04 APERTURE END LIST*
G36*
X56764542Y-69714893D02*
G01*
X56776870Y-69723130D01*
X56785107Y-69735458D01*
X56788000Y-69750000D01*
X56788000Y-75450000D01*
X56785107Y-75464542D01*
X56776870Y-75476870D01*
X56764542Y-75485107D01*
X56750000Y-75488000D01*
X54750000Y-75488000D01*
X54735458Y-75485107D01*
X54723130Y-75476870D01*
X54714893Y-75464542D01*
X54712000Y-75450000D01*
X54712000Y-69750000D01*
X54714893Y-69735458D01*
X54723130Y-69723130D01*
X54735458Y-69714893D01*
X54750000Y-69712000D01*
X56750000Y-69712000D01*
X56764542Y-69714893D01*
G37*
G36*
X102165937Y-65619650D02*
G01*
X102180862Y-65626240D01*
X102188551Y-65627458D01*
X102220573Y-65643774D01*
X102262759Y-65662401D01*
X102337599Y-65737241D01*
X102356228Y-65779433D01*
X102372541Y-65811448D01*
X102373758Y-65819134D01*
X102380350Y-65834063D01*
X102387999Y-65900002D01*
X102387999Y-65909043D01*
X102388000Y-65909050D01*
X102388000Y-67062482D01*
X102388000Y-68099999D01*
X102380350Y-68165937D01*
X102373758Y-68180866D01*
X102372541Y-68188551D01*
X102356232Y-68220559D01*
X102337599Y-68262759D01*
X102262759Y-68337599D01*
X102220559Y-68356232D01*
X102188551Y-68372541D01*
X102180866Y-68373758D01*
X102165937Y-68380350D01*
X102099998Y-68387999D01*
X102090955Y-68387999D01*
X102090949Y-68388000D01*
X99909051Y-68388000D01*
X99909050Y-68387999D01*
X99900001Y-68388000D01*
X99834063Y-68380350D01*
X99819134Y-68373758D01*
X99811448Y-68372541D01*
X99779433Y-68356228D01*
X99737241Y-68337599D01*
X99662401Y-68262759D01*
X99643774Y-68220573D01*
X99627458Y-68188551D01*
X99626240Y-68180862D01*
X99619650Y-68165937D01*
X99612001Y-68099998D01*
X99612000Y-68090955D01*
X99612000Y-68090949D01*
X99612000Y-65909050D01*
X99612000Y-65909049D01*
X99612000Y-65900001D01*
X99619650Y-65834063D01*
X99626240Y-65819137D01*
X99627458Y-65811448D01*
X99643777Y-65779418D01*
X99662401Y-65737241D01*
X99737241Y-65662401D01*
X99779418Y-65643777D01*
X99811448Y-65627458D01*
X99819137Y-65626240D01*
X99834063Y-65619650D01*
X99900002Y-65612001D01*
X99909044Y-65612000D01*
X99909051Y-65612000D01*
X102090949Y-65612000D01*
X102099999Y-65612000D01*
X102165937Y-65619650D01*
G37*
G36*
X9162535Y-66365072D02*
G01*
X9285202Y-66389472D01*
X9400751Y-66437334D01*
X9504743Y-66506819D01*
X9593181Y-66595257D01*
X9662666Y-66699249D01*
X9710528Y-66814798D01*
X9734928Y-66937465D01*
X9734928Y-67062535D01*
X9710528Y-67185202D01*
X9662666Y-67300751D01*
X9593181Y-67404743D01*
X9504743Y-67493181D01*
X9400751Y-67562666D01*
X9285202Y-67610528D01*
X9162535Y-67634928D01*
X9100000Y-67638000D01*
X9097186Y-67638000D01*
X8552814Y-67638000D01*
X8550000Y-67638000D01*
X8487465Y-67634928D01*
X8364798Y-67610528D01*
X8249249Y-67562666D01*
X8145257Y-67493181D01*
X8056819Y-67404743D01*
X7987334Y-67300751D01*
X7939472Y-67185202D01*
X7915072Y-67062535D01*
X7915072Y-66937465D01*
X7939472Y-66814798D01*
X7987334Y-66699249D01*
X8056819Y-66595257D01*
X8145257Y-66506819D01*
X8249249Y-66437334D01*
X8364798Y-66389472D01*
X8487465Y-66365072D01*
X8550000Y-66362000D01*
X9100000Y-66362000D01*
X9162535Y-66365072D01*
G37*
G36*
X56764542Y-60014893D02*
G01*
X56776870Y-60023130D01*
X56785107Y-60035458D01*
X56788000Y-60050000D01*
X56788000Y-65750000D01*
X56785107Y-65764542D01*
X56776870Y-65776870D01*
X56764542Y-65785107D01*
X56750000Y-65788000D01*
X54750000Y-65788000D01*
X54735458Y-65785107D01*
X54723130Y-65776870D01*
X54714893Y-65764542D01*
X54712000Y-65750000D01*
X54712000Y-60050000D01*
X54714893Y-60035458D01*
X54723130Y-60023130D01*
X54735458Y-60014893D01*
X54750000Y-60012000D01*
X56750000Y-60012000D01*
X56764542Y-60014893D01*
G37*
G36*
X9162535Y-64365072D02*
G01*
X9285202Y-64389472D01*
X9400751Y-64437334D01*
X9504743Y-64506819D01*
X9593181Y-64595257D01*
X9662666Y-64699249D01*
X9710528Y-64814798D01*
X9734928Y-64937465D01*
X9734928Y-65062535D01*
X9710528Y-65185202D01*
X9662666Y-65300751D01*
X9593181Y-65404743D01*
X9504743Y-65493181D01*
X9400751Y-65562666D01*
X9285202Y-65610528D01*
X9162535Y-65634928D01*
X9100000Y-65638000D01*
X9097186Y-65638000D01*
X8552814Y-65638000D01*
X8550000Y-65638000D01*
X8487465Y-65634928D01*
X8364798Y-65610528D01*
X8249249Y-65562666D01*
X8145257Y-65493181D01*
X8056819Y-65404743D01*
X7987334Y-65300751D01*
X7939472Y-65185202D01*
X7915072Y-65062535D01*
X7915072Y-64937465D01*
X7939472Y-64814798D01*
X7987334Y-64699249D01*
X8056819Y-64595257D01*
X8145257Y-64506819D01*
X8249249Y-64437334D01*
X8364798Y-64389472D01*
X8487465Y-64365072D01*
X8550000Y-64362000D01*
X9100000Y-64362000D01*
X9162535Y-64365072D01*
G37*
G36*
X101324022Y-61690351D02*
G01*
X101531165Y-61757655D01*
X101725228Y-61856535D01*
X101901434Y-61984557D01*
X102055443Y-62138566D01*
X102183465Y-62314772D01*
X102282345Y-62508835D01*
X102349649Y-62715978D01*
X102383721Y-62931099D01*
X102383721Y-63148901D01*
X102349649Y-63364022D01*
X102282345Y-63571165D01*
X102183465Y-63765228D01*
X102055443Y-63941434D01*
X101901434Y-64095443D01*
X101725228Y-64223465D01*
X101531165Y-64322345D01*
X101324022Y-64389649D01*
X101108901Y-64423721D01*
X100891099Y-64423721D01*
X100675978Y-64389649D01*
X100468835Y-64322345D01*
X100274772Y-64223465D01*
X100098566Y-64095443D01*
X99944557Y-63941434D01*
X99816535Y-63765228D01*
X99717655Y-63571165D01*
X99650351Y-63364022D01*
X99616279Y-63148901D01*
X99616279Y-62931099D01*
X99650351Y-62715978D01*
X99717655Y-62508835D01*
X99816535Y-62314772D01*
X99944557Y-62138566D01*
X100098566Y-61984557D01*
X100274772Y-61856535D01*
X100468835Y-61757655D01*
X100675978Y-61690351D01*
X100891099Y-61656279D01*
X101108901Y-61656279D01*
X101324022Y-61690351D01*
G37*
G36*
X9162535Y-62365072D02*
G01*
X9285202Y-62389472D01*
X9400751Y-62437334D01*
X9504743Y-62506819D01*
X9593181Y-62595257D01*
X9662666Y-62699249D01*
X9710528Y-62814798D01*
X9734928Y-62937465D01*
X9734928Y-63062535D01*
X9710528Y-63185202D01*
X9662666Y-63300751D01*
X9593181Y-63404743D01*
X9504743Y-63493181D01*
X9400751Y-63562666D01*
X9285202Y-63610528D01*
X9162535Y-63634928D01*
X9100000Y-63638000D01*
X9097186Y-63638000D01*
X8552814Y-63638000D01*
X8550000Y-63638000D01*
X8487465Y-63634928D01*
X8364798Y-63610528D01*
X8249249Y-63562666D01*
X8145257Y-63493181D01*
X8056819Y-63404743D01*
X7987334Y-63300751D01*
X7939472Y-63185202D01*
X7915072Y-63062535D01*
X7915072Y-62937465D01*
X7939472Y-62814798D01*
X7987334Y-62699249D01*
X8056819Y-62595257D01*
X8145257Y-62506819D01*
X8249249Y-62437334D01*
X8364798Y-62389472D01*
X8487465Y-62365072D01*
X8550000Y-62362000D01*
X9100000Y-62362000D01*
X9162535Y-62365072D01*
G37*
G36*
X9162535Y-60365072D02*
G01*
X9285202Y-60389472D01*
X9400751Y-60437334D01*
X9504743Y-60506819D01*
X9593181Y-60595257D01*
X9662666Y-60699249D01*
X9710528Y-60814798D01*
X9734928Y-60937465D01*
X9734928Y-61062535D01*
X9710528Y-61185202D01*
X9662666Y-61300751D01*
X9593181Y-61404743D01*
X9504743Y-61493181D01*
X9400751Y-61562666D01*
X9285202Y-61610528D01*
X9162535Y-61634928D01*
X9100000Y-61638000D01*
X9097186Y-61638000D01*
X8552814Y-61638000D01*
X8550000Y-61638000D01*
X8487465Y-61634928D01*
X8364798Y-61610528D01*
X8249249Y-61562666D01*
X8145257Y-61493181D01*
X8056819Y-61404743D01*
X7987334Y-61300751D01*
X7939472Y-61185202D01*
X7915072Y-61062535D01*
X7915072Y-60937465D01*
X7939472Y-60814798D01*
X7987334Y-60699249D01*
X8056819Y-60595257D01*
X8145257Y-60506819D01*
X8249249Y-60437334D01*
X8364798Y-60389472D01*
X8487465Y-60365072D01*
X8550000Y-60362000D01*
X9100000Y-60362000D01*
X9162535Y-60365072D01*
G37*
G36*
X9162535Y-58365072D02*
G01*
X9285202Y-58389472D01*
X9400751Y-58437334D01*
X9504743Y-58506819D01*
X9593181Y-58595257D01*
X9662666Y-58699249D01*
X9710528Y-58814798D01*
X9734928Y-58937465D01*
X9734928Y-59062535D01*
X9710528Y-59185202D01*
X9662666Y-59300751D01*
X9593181Y-59404743D01*
X9504743Y-59493181D01*
X9400751Y-59562666D01*
X9285202Y-59610528D01*
X9162535Y-59634928D01*
X9100000Y-59638000D01*
X9097186Y-59638000D01*
X8552814Y-59638000D01*
X8550000Y-59638000D01*
X8487465Y-59634928D01*
X8364798Y-59610528D01*
X8249249Y-59562666D01*
X8145257Y-59493181D01*
X8056819Y-59404743D01*
X7987334Y-59300751D01*
X7939472Y-59185202D01*
X7915072Y-59062535D01*
X7915072Y-58937465D01*
X7939472Y-58814798D01*
X7987334Y-58699249D01*
X8056819Y-58595257D01*
X8145257Y-58506819D01*
X8249249Y-58437334D01*
X8364798Y-58389472D01*
X8487465Y-58365072D01*
X8550000Y-58362000D01*
X9100000Y-58362000D01*
X9162535Y-58365072D01*
G37*
G36*
X9162535Y-56365072D02*
G01*
X9285202Y-56389472D01*
X9400751Y-56437334D01*
X9504743Y-56506819D01*
X9593181Y-56595257D01*
X9662666Y-56699249D01*
X9710528Y-56814798D01*
X9734928Y-56937465D01*
X9734928Y-57062535D01*
X9710528Y-57185202D01*
X9662666Y-57300751D01*
X9593181Y-57404743D01*
X9504743Y-57493181D01*
X9400751Y-57562666D01*
X9285202Y-57610528D01*
X9162535Y-57634928D01*
X9100000Y-57638000D01*
X9097186Y-57638000D01*
X8552814Y-57638000D01*
X8550000Y-57638000D01*
X8487465Y-57634928D01*
X8364798Y-57610528D01*
X8249249Y-57562666D01*
X8145257Y-57493181D01*
X8056819Y-57404743D01*
X7987334Y-57300751D01*
X7939472Y-57185202D01*
X7915072Y-57062535D01*
X7915072Y-56937465D01*
X7939472Y-56814798D01*
X7987334Y-56699249D01*
X8056819Y-56595257D01*
X8145257Y-56506819D01*
X8249249Y-56437334D01*
X8364798Y-56389472D01*
X8487465Y-56365072D01*
X8550000Y-56362000D01*
X9100000Y-56362000D01*
X9162535Y-56365072D01*
G37*
G36*
X9162535Y-54365072D02*
G01*
X9285202Y-54389472D01*
X9400751Y-54437334D01*
X9504743Y-54506819D01*
X9593181Y-54595257D01*
X9662666Y-54699249D01*
X9710528Y-54814798D01*
X9734928Y-54937465D01*
X9734928Y-55062535D01*
X9710528Y-55185202D01*
X9662666Y-55300751D01*
X9593181Y-55404743D01*
X9504743Y-55493181D01*
X9400751Y-55562666D01*
X9285202Y-55610528D01*
X9162535Y-55634928D01*
X9100000Y-55638000D01*
X9097186Y-55638000D01*
X8552814Y-55638000D01*
X8550000Y-55638000D01*
X8487465Y-55634928D01*
X8364798Y-55610528D01*
X8249249Y-55562666D01*
X8145257Y-55493181D01*
X8056819Y-55404743D01*
X7987334Y-55300751D01*
X7939472Y-55185202D01*
X7915072Y-55062535D01*
X7915072Y-54937465D01*
X7939472Y-54814798D01*
X7987334Y-54699249D01*
X8056819Y-54595257D01*
X8145257Y-54506819D01*
X8249249Y-54437334D01*
X8364798Y-54389472D01*
X8487465Y-54365072D01*
X8550000Y-54362000D01*
X9100000Y-54362000D01*
X9162535Y-54365072D01*
G37*
G36*
X9515938Y-52369650D02*
G01*
X9530863Y-52376240D01*
X9538552Y-52377458D01*
X9570578Y-52393776D01*
X9612759Y-52412401D01*
X9687599Y-52487241D01*
X9706226Y-52529428D01*
X9722541Y-52561447D01*
X9723758Y-52569133D01*
X9730350Y-52584062D01*
X9738000Y-52650000D01*
X9738000Y-53350000D01*
X9730350Y-53415938D01*
X9723758Y-53430867D01*
X9722541Y-53438552D01*
X9706230Y-53470563D01*
X9687599Y-53512759D01*
X9612759Y-53587599D01*
X9570563Y-53606230D01*
X9538552Y-53622541D01*
X9530867Y-53623758D01*
X9515938Y-53630350D01*
X9450000Y-53638000D01*
X8200000Y-53638000D01*
X8134062Y-53630350D01*
X8119133Y-53623758D01*
X8111447Y-53622541D01*
X8079428Y-53606226D01*
X8037241Y-53587599D01*
X7962401Y-53512759D01*
X7943776Y-53470578D01*
X7927458Y-53438552D01*
X7926240Y-53430863D01*
X7919650Y-53415938D01*
X7912000Y-53350000D01*
X7912000Y-52650000D01*
X7919650Y-52584062D01*
X7926240Y-52569137D01*
X7927458Y-52561447D01*
X7943779Y-52529414D01*
X7962401Y-52487241D01*
X8037241Y-52412401D01*
X8079414Y-52393779D01*
X8111447Y-52377458D01*
X8119137Y-52376240D01*
X8134062Y-52369650D01*
X8200000Y-52362000D01*
X9450000Y-52362000D01*
X9515938Y-52369650D01*
G37*
M02*
