%TF.GenerationSoftware,KiCad,Pcbnew,9.0.5*%
%TF.CreationDate,2025-11-04T14:37:27-05:00*%
%TF.ProjectId,display,64697370-6c61-4792-9e6b-696361645f70,0.1.0*%
%TF.SameCoordinates,Original*%
%TF.FileFunction,Copper,L4,Bot*%
%TF.FilePolarity,Positive*%
%FSLAX46Y46*%
G04 Gerber Fmt 4.6, Leading zero omitted, Abs format (unit mm)*
G04 Created by KiCad (PCBNEW 9.0.5) date 2025-11-04 14:37:27*
%MOMM*%
%LPD*%
G01*
G04 APERTURE LIST*
G04 Aperture macros list*
%AMRoundRect*
0 Rectangle with rounded corners*
0 $1 Rounding radius*
0 $2 $3 $4 $5 $6 $7 $8 $9 X,Y pos of 4 corners*
0 Add a 4 corners polygon primitive as box body*
4,1,4,$2,$3,$4,$5,$6,$7,$8,$9,$2,$3,0*
0 Add four circle primitives for the rounded corners*
1,1,$1+$1,$2,$3*
1,1,$1+$1,$4,$5*
1,1,$1+$1,$6,$7*
1,1,$1+$1,$8,$9*
0 Add four rect primitives between the rounded corners*
20,1,$1+$1,$2,$3,$4,$5,0*
20,1,$1+$1,$4,$5,$6,$7,0*
20,1,$1+$1,$6,$7,$8,$9,0*
20,1,$1+$1,$8,$9,$2,$3,0*%
G04 Aperture macros list end*
%TA.AperFunction,SMDPad,CuDef*%
%ADD10R,2.260600X2.590800*%
%TD*%
%TA.AperFunction,ComponentPad*%
%ADD11RoundRect,0.250000X-0.625000X0.350000X-0.625000X-0.350000X0.625000X-0.350000X0.625000X0.350000X0*%
%TD*%
%TA.AperFunction,ComponentPad*%
%ADD12O,1.750000X1.200000*%
%TD*%
%TA.AperFunction,ComponentPad*%
%ADD13RoundRect,0.250001X1.099999X-1.099999X1.099999X1.099999X-1.099999X1.099999X-1.099999X-1.099999X0*%
%TD*%
%TA.AperFunction,ComponentPad*%
%ADD14C,2.700000*%
%TD*%
%TA.AperFunction,ComponentPad*%
%ADD15C,6.400000*%
%TD*%
%TA.AperFunction,ViaPad*%
%ADD16C,0.600000*%
%TD*%
%TA.AperFunction,ViaPad*%
%ADD17C,1.000000*%
%TD*%
%TA.AperFunction,Conductor*%
%ADD18C,0.500000*%
%TD*%
%TA.AperFunction,Conductor*%
%ADD19C,1.000000*%
%TD*%
G04 APERTURE END LIST*
D10*
%TO.P,C84,1*%
%TO.N,VDD*%
X22153900Y-73500000D03*
%TO.P,C84,2*%
%TO.N,GND*%
X27691100Y-73500000D03*
%TD*%
%TO.P,C89,1*%
%TO.N,VDD*%
X27686100Y-37500000D03*
%TO.P,C89,2*%
%TO.N,GND*%
X22148900Y-37500000D03*
%TD*%
D11*
%TO.P,J2,1,Pin_1*%
%TO.N,DIN1*%
X10000000Y-53000000D03*
D12*
%TO.P,J2,2,Pin_2*%
%TO.N,DIN2*%
X10000000Y-55000000D03*
%TO.P,J2,3,Pin_3*%
%TO.N,DIN3*%
X10000000Y-57000000D03*
%TO.P,J2,4,Pin_4*%
%TO.N,DIN4*%
X10000000Y-59000000D03*
%TO.P,J2,5,Pin_5*%
%TO.N,DIN5*%
X10000000Y-61000000D03*
%TO.P,J2,6,Pin_6*%
%TO.N,DIN6*%
X10000000Y-63000000D03*
%TO.P,J2,7,Pin_7*%
%TO.N,DIN7*%
X10000000Y-65000000D03*
%TO.P,J2,8,Pin_8*%
%TO.N,DIN8*%
X10000000Y-67000000D03*
%TD*%
D10*
%TO.P,C83,1*%
%TO.N,VDD*%
X71648900Y-53500000D03*
%TO.P,C83,2*%
%TO.N,GND*%
X77186100Y-53500000D03*
%TD*%
%TO.P,C81,1*%
%TO.N,VDD*%
X88191100Y-73500000D03*
%TO.P,C81,2*%
%TO.N,GND*%
X82653900Y-73500000D03*
%TD*%
%TO.P,C82,1*%
%TO.N,VDD*%
X56941100Y-73500000D03*
%TO.P,C82,2*%
%TO.N,GND*%
X51403900Y-73500000D03*
%TD*%
%TO.P,C87,1*%
%TO.N,VDD*%
X51398900Y-37500000D03*
%TO.P,C87,2*%
%TO.N,GND*%
X56936100Y-37500000D03*
%TD*%
%TO.P,C90,1*%
%TO.N,VDD*%
X71731400Y-21750000D03*
%TO.P,C90,2*%
%TO.N,GND*%
X77268600Y-21750000D03*
%TD*%
%TO.P,C85,1*%
%TO.N,VDD*%
X35731400Y-21500000D03*
%TO.P,C85,2*%
%TO.N,GND*%
X41268600Y-21500000D03*
%TD*%
%TO.P,C86,1*%
%TO.N,VDD*%
X35648900Y-53250000D03*
%TO.P,C86,2*%
%TO.N,GND*%
X41186100Y-53250000D03*
%TD*%
D13*
%TO.P,J1,1,Pin_1*%
%TO.N,VDD*%
X101002500Y-67000000D03*
D14*
%TO.P,J1,2,Pin_2*%
%TO.N,GND*%
X101002500Y-63040000D03*
%TD*%
D10*
%TO.P,C88,1*%
%TO.N,VDD*%
X83398900Y-37250000D03*
%TO.P,C88,2*%
%TO.N,GND*%
X88936100Y-37250000D03*
%TD*%
D15*
%TO.P,H2,1*%
%TO.N,N/C*%
X101000000Y-16000000D03*
%TD*%
%TO.P,H1,1*%
%TO.N,N/C*%
X11000000Y-16000000D03*
%TD*%
%TO.P,H3,1*%
%TO.N,N/C*%
X11000000Y-75000000D03*
%TD*%
%TO.P,H4,1*%
%TO.N,N/C*%
X101000000Y-75000000D03*
%TD*%
D16*
%TO.N,DIN2*%
X11750000Y-48250000D03*
%TO.N,VDD*%
X93575000Y-42895000D03*
X25575000Y-50845000D03*
X85522500Y-39995000D03*
X53522500Y-39995000D03*
X37445000Y-71995000D03*
X21606250Y-18895000D03*
X53575000Y-34895000D03*
X17575000Y-26895000D03*
X49575000Y-34895000D03*
X49575000Y-66895000D03*
X29522500Y-55995000D03*
D17*
X38000000Y-53250000D03*
D16*
X33445000Y-71995000D03*
X77660000Y-58845000D03*
X69660000Y-74845000D03*
X17522500Y-31995000D03*
X85575000Y-42895000D03*
X33575000Y-50845000D03*
X25522500Y-47995000D03*
X65606250Y-18895000D03*
X33606250Y-18895000D03*
X53660000Y-74845000D03*
X45950000Y-77400000D03*
X37606250Y-18895000D03*
X49522500Y-31995000D03*
X73575000Y-66895000D03*
X93522500Y-31995000D03*
X81522500Y-39995000D03*
X57522500Y-63995000D03*
X65575000Y-34895000D03*
X89575000Y-42895000D03*
X77660000Y-74845000D03*
X77575000Y-50845000D03*
X17522500Y-55995000D03*
X69522500Y-39995000D03*
X77522500Y-15995000D03*
X25575000Y-34895000D03*
X65660000Y-58845000D03*
X29800000Y-77600000D03*
X84000000Y-53500000D03*
X53575000Y-42895000D03*
X61575000Y-26895000D03*
X21575000Y-26895000D03*
X45445000Y-71995000D03*
X33575000Y-42895000D03*
X21660000Y-58845000D03*
X29500000Y-21400000D03*
X69575000Y-42895000D03*
X85522500Y-23995000D03*
X17660000Y-58845000D03*
X21575000Y-34895000D03*
X41522500Y-55995000D03*
X85522500Y-15995000D03*
X53522500Y-15995000D03*
X41575000Y-26895000D03*
X17522500Y-63995000D03*
X61660000Y-58845000D03*
X53660000Y-58845000D03*
X33522500Y-47995000D03*
X41522500Y-31995000D03*
X52600000Y-53500000D03*
D17*
X69422500Y-53500000D03*
D16*
X45575000Y-34895000D03*
X29522500Y-15995000D03*
X73606250Y-18895000D03*
X77522500Y-63995000D03*
X49522500Y-15995000D03*
X65522500Y-23995000D03*
X77500000Y-45600000D03*
X77522500Y-23995000D03*
X69575000Y-66895000D03*
X17575000Y-34895000D03*
X53606250Y-18895000D03*
X29850000Y-61300000D03*
X61575000Y-42895000D03*
X45575000Y-50845000D03*
X89575000Y-50845000D03*
X85575000Y-26895000D03*
X73522500Y-23995000D03*
X21522500Y-55995000D03*
X29522500Y-47995000D03*
X25575000Y-42895000D03*
X85522500Y-63995000D03*
D17*
X20000000Y-73500000D03*
D16*
X45522500Y-31995000D03*
X81522500Y-31995000D03*
X45750000Y-45550000D03*
X89522500Y-39995000D03*
D17*
X37988900Y-21445000D03*
D16*
X45522500Y-15995000D03*
X25522500Y-23995000D03*
D17*
X69831100Y-21750000D03*
D16*
X69606250Y-18895000D03*
X93522500Y-15995000D03*
X89522500Y-15995000D03*
X61450000Y-77350000D03*
X89606250Y-18895000D03*
X61600000Y-29500000D03*
X37575000Y-26895000D03*
X89522500Y-47995000D03*
X65522500Y-31995000D03*
X93606250Y-18895000D03*
X45550000Y-61450000D03*
X61660000Y-74845000D03*
X77522500Y-31995000D03*
X29522500Y-63995000D03*
X93445000Y-71995000D03*
X37575000Y-66895000D03*
X21522500Y-23995000D03*
X33575000Y-26895000D03*
X57522500Y-47995000D03*
X45522500Y-23995000D03*
X45660000Y-74845000D03*
X65575000Y-66895000D03*
X30100000Y-37500000D03*
X69522500Y-31995000D03*
X41522500Y-39995000D03*
X25445000Y-71995000D03*
X37575000Y-50845000D03*
X69522500Y-63995000D03*
X25522500Y-39995000D03*
X25660000Y-74845000D03*
D17*
X25403900Y-37495000D03*
D16*
X89522500Y-23995000D03*
X65522500Y-15995000D03*
X77350000Y-37550000D03*
X17445000Y-71995000D03*
X37522500Y-39995000D03*
X29850000Y-45500000D03*
X81522500Y-63995000D03*
X29522500Y-31995000D03*
X77575000Y-26895000D03*
X17522500Y-47995000D03*
X53522500Y-63995000D03*
X69575000Y-50845000D03*
X81522500Y-23995000D03*
D17*
X54750000Y-73500000D03*
D16*
X57575000Y-42895000D03*
X85522500Y-55995000D03*
X29575000Y-34895000D03*
X25522500Y-15995000D03*
X37522500Y-47995000D03*
X89522500Y-31995000D03*
X53522500Y-23995000D03*
X73522500Y-63995000D03*
X93575000Y-26895000D03*
X29450000Y-53500000D03*
X33522500Y-15995000D03*
X61575000Y-34895000D03*
X65575000Y-50845000D03*
X65522500Y-47995000D03*
X52850000Y-21450000D03*
X25606250Y-18895000D03*
X45900000Y-29500000D03*
X45450000Y-69450000D03*
X45800000Y-37450000D03*
X77900000Y-77500000D03*
X85660000Y-74845000D03*
X21522500Y-47995000D03*
X45522500Y-47995000D03*
X41660000Y-58845000D03*
X53522500Y-47995000D03*
X49660000Y-58845000D03*
X17522500Y-23995000D03*
X61522500Y-55995000D03*
X29575000Y-42895000D03*
X41575000Y-66895000D03*
X89575000Y-34895000D03*
X57575000Y-26895000D03*
X53575000Y-66895000D03*
X33660000Y-58845000D03*
X77522500Y-39995000D03*
X29660000Y-74845000D03*
X81522500Y-47995000D03*
X29660000Y-58845000D03*
X45522500Y-55995000D03*
X61575000Y-50845000D03*
D17*
X85543200Y-37250000D03*
D16*
X25660000Y-58845000D03*
X17522500Y-15995000D03*
X73660000Y-74845000D03*
X29575000Y-26895000D03*
X81660000Y-58845000D03*
X45522500Y-63995000D03*
X33660000Y-74845000D03*
X73575000Y-34895000D03*
X77575000Y-42895000D03*
X89575000Y-26895000D03*
X81575000Y-42895000D03*
X57575000Y-50845000D03*
X49522500Y-63995000D03*
X33522500Y-55995000D03*
X77616697Y-69548548D03*
X93522500Y-23995000D03*
X41445000Y-71995000D03*
X29445000Y-71995000D03*
X85606250Y-18895000D03*
X78000000Y-29500000D03*
X21522500Y-63995000D03*
X73575000Y-42895000D03*
X33522500Y-31995000D03*
X49660000Y-74845000D03*
X73575000Y-26895000D03*
D17*
X53538200Y-37495000D03*
D16*
X61522500Y-31995000D03*
X45522500Y-39995000D03*
X57606250Y-18895000D03*
X77522500Y-47995000D03*
X37522500Y-23995000D03*
X81575000Y-34895000D03*
X93522500Y-55995000D03*
X73575000Y-50845000D03*
X61445000Y-71995000D03*
X57522500Y-15995000D03*
X49522500Y-23995000D03*
X33575000Y-34895000D03*
X33522500Y-39995000D03*
X93522500Y-39995000D03*
X41660000Y-74845000D03*
X61900000Y-45500000D03*
X17575000Y-50845000D03*
X85575000Y-50845000D03*
X49522500Y-39995000D03*
X25575000Y-66895000D03*
X29950000Y-29400000D03*
X73522500Y-15995000D03*
X73522500Y-31995000D03*
X21575000Y-66895000D03*
X41606250Y-18895000D03*
X77606250Y-18895000D03*
X53575000Y-50845000D03*
X45575000Y-66895000D03*
X77575000Y-66895000D03*
X89522500Y-63995000D03*
X49445000Y-71995000D03*
X17575000Y-66895000D03*
X29667859Y-69404583D03*
X89575000Y-66895000D03*
X65522500Y-63995000D03*
X65522500Y-55995000D03*
X17575000Y-42895000D03*
X69522500Y-47995000D03*
X85445000Y-71995000D03*
X57660000Y-58845000D03*
X61750000Y-37550000D03*
X49575000Y-50845000D03*
X89522500Y-55995000D03*
X57522500Y-23995000D03*
X57522500Y-55995000D03*
X37575000Y-34895000D03*
X61522500Y-47995000D03*
X85575000Y-34895000D03*
X37522500Y-63995000D03*
X61522500Y-39995000D03*
X85522500Y-47995000D03*
X65575000Y-26895000D03*
X69575000Y-26895000D03*
X17522500Y-39995000D03*
X69575000Y-34895000D03*
X45606250Y-18895000D03*
X53445000Y-71995000D03*
X25522500Y-55995000D03*
X41575000Y-34895000D03*
X49522500Y-47995000D03*
X41522500Y-47995000D03*
X93522500Y-47995000D03*
X89660000Y-58845000D03*
X41575000Y-42895000D03*
X41575000Y-50845000D03*
X85575000Y-66895000D03*
X41522500Y-63995000D03*
X81507500Y-75445000D03*
X33575000Y-66895000D03*
X61850000Y-61500000D03*
X77575000Y-34895000D03*
X69445000Y-71995000D03*
X93660000Y-58845000D03*
X85522500Y-31995000D03*
X69660000Y-58845000D03*
X57522500Y-39995000D03*
X81522500Y-55995000D03*
X57575000Y-66895000D03*
X61522500Y-63995000D03*
X49575000Y-42895000D03*
X61522500Y-23995000D03*
X21575000Y-50845000D03*
X69522500Y-23995000D03*
X65660000Y-74845000D03*
X65445000Y-71995000D03*
X81575000Y-26895000D03*
X53522500Y-55995000D03*
X53575000Y-26895000D03*
X81522500Y-15995000D03*
X57575000Y-34895000D03*
X65522500Y-39995000D03*
X73445000Y-71995000D03*
X33522500Y-63995000D03*
X93575000Y-50845000D03*
X25522500Y-63995000D03*
X21575000Y-42895000D03*
X21522500Y-39995000D03*
X41522500Y-23995000D03*
X85150000Y-21500000D03*
X81575000Y-66895000D03*
X17660000Y-74845000D03*
X45575000Y-42895000D03*
X73522500Y-55995000D03*
D17*
X90500000Y-73500000D03*
D16*
X61606250Y-18895000D03*
X93575000Y-66895000D03*
X57522500Y-31995000D03*
X93660000Y-74845000D03*
X81606250Y-18895000D03*
X49522500Y-55995000D03*
X77522500Y-55995000D03*
X77445000Y-71995000D03*
X29522500Y-23995000D03*
X61575000Y-66895000D03*
X21600000Y-16010000D03*
X29575000Y-66895000D03*
X69522500Y-55995000D03*
X61850000Y-53500000D03*
X73660000Y-58845000D03*
X49575000Y-26895000D03*
X61522500Y-15995000D03*
X81575000Y-50845000D03*
X61350000Y-21500000D03*
X73522500Y-47995000D03*
X21522500Y-31995000D03*
X37660000Y-74845000D03*
X17606250Y-18895000D03*
X37575000Y-42895000D03*
X37522500Y-31995000D03*
X41522500Y-15995000D03*
X29606250Y-18895000D03*
X25522500Y-31995000D03*
X29575000Y-50845000D03*
X85660000Y-58845000D03*
X93575000Y-34895000D03*
X81550000Y-71450000D03*
X53522500Y-31995000D03*
X29522500Y-39995000D03*
X61500000Y-69550000D03*
X65575000Y-42895000D03*
X37522500Y-15995000D03*
X45660000Y-58845000D03*
X77400000Y-61550000D03*
X37522500Y-55995000D03*
X33522500Y-23995000D03*
X49606250Y-18895000D03*
X73522500Y-39995000D03*
X45575000Y-26895000D03*
X93522500Y-63995000D03*
X25575000Y-26895000D03*
X69522500Y-15995000D03*
X37660000Y-58845000D03*
%TO.N,GND*%
X29622500Y-14895000D03*
X64922500Y-49495000D03*
X89622500Y-22895000D03*
X57560000Y-75945000D03*
X80922500Y-29495000D03*
X29622500Y-54895000D03*
X57475000Y-27995000D03*
X21475000Y-51945000D03*
X89622500Y-14895000D03*
X49622500Y-54895000D03*
X41622500Y-46895000D03*
X93475000Y-27995000D03*
X77545000Y-70895000D03*
X25475000Y-43995000D03*
X69475000Y-51945000D03*
X48922500Y-29495000D03*
X65622500Y-62895000D03*
X93500000Y-73500000D03*
X85545000Y-70895000D03*
X89560000Y-59945000D03*
X64922500Y-41495000D03*
X37622500Y-46895000D03*
X89560000Y-75945000D03*
X29622500Y-30895000D03*
X93422500Y-41495000D03*
X21622500Y-46895000D03*
X69622500Y-38895000D03*
X17575000Y-17500000D03*
X61622500Y-62895000D03*
X25622500Y-14895000D03*
X80922500Y-41495000D03*
X41556250Y-35995000D03*
X80922500Y-49495000D03*
X32922500Y-69495000D03*
X61475000Y-43995000D03*
X69622500Y-22895000D03*
X17545000Y-70895000D03*
X85622500Y-62895000D03*
X49622500Y-30895000D03*
X32922500Y-29495000D03*
X32922500Y-53500000D03*
X93422500Y-33495000D03*
X69622500Y-46895000D03*
X73622500Y-14895000D03*
X25475000Y-51945000D03*
X65622500Y-22895000D03*
X41622500Y-14895000D03*
X64922500Y-25495000D03*
X73560000Y-75945000D03*
X93575000Y-65495000D03*
X80922500Y-53500000D03*
X93622500Y-30895000D03*
X48922500Y-49495000D03*
X81622500Y-46895000D03*
X37475000Y-35995000D03*
X25622500Y-62895000D03*
X37622500Y-62895000D03*
D17*
X91177500Y-37250000D03*
D16*
X37560000Y-75945000D03*
X69506250Y-19995000D03*
X21545000Y-70895000D03*
X33545000Y-70895000D03*
X69622500Y-14895000D03*
X25475000Y-67995000D03*
X81000000Y-77450000D03*
X85622500Y-38895000D03*
X53545000Y-70895000D03*
X21622500Y-54895000D03*
X64922500Y-69495000D03*
X37475000Y-43995000D03*
X37475000Y-51945000D03*
X33000000Y-77450000D03*
X53622500Y-22895000D03*
X17490000Y-25495000D03*
X93622500Y-62895000D03*
X29475000Y-27995000D03*
X21475000Y-27995000D03*
X41545000Y-70895000D03*
X57622500Y-22895000D03*
X53622500Y-46895000D03*
X61622500Y-22895000D03*
X93506250Y-19995000D03*
X93575000Y-49495000D03*
X73622500Y-22895000D03*
X77475000Y-43995000D03*
X85475000Y-67995000D03*
X73475000Y-43995000D03*
X49622500Y-14895000D03*
X32922500Y-33495000D03*
X73545000Y-70895000D03*
X81000000Y-61500000D03*
X17490000Y-49495000D03*
X25560000Y-59945000D03*
X17476250Y-43995000D03*
X89545000Y-70895000D03*
X17476250Y-35995000D03*
X21622500Y-62895000D03*
X33000000Y-61500000D03*
X81622500Y-62895000D03*
X17476250Y-27995000D03*
X17567500Y-73500000D03*
X33007500Y-21500000D03*
X77622500Y-62895000D03*
X45475000Y-27995000D03*
X53622500Y-54895000D03*
X73622500Y-54895000D03*
X81007500Y-21500000D03*
X93500000Y-57500000D03*
X93422500Y-25495000D03*
X48922500Y-25495000D03*
X64922500Y-37495000D03*
X69622500Y-54895000D03*
X80922500Y-25495000D03*
X61475000Y-35995000D03*
X57475000Y-67995000D03*
X25622500Y-38895000D03*
X17561250Y-59945000D03*
X69622500Y-30895000D03*
X33622500Y-54895000D03*
X21560000Y-59945000D03*
X49000000Y-57500000D03*
X45545000Y-70895000D03*
X17476250Y-67995000D03*
X69622500Y-62895000D03*
X53622500Y-30895000D03*
X41560000Y-75945000D03*
X17622500Y-22895000D03*
X61475000Y-51945000D03*
X69475000Y-27995000D03*
X93507500Y-17500000D03*
X89622500Y-30895000D03*
X61622500Y-30895000D03*
X69475000Y-35995000D03*
X37622500Y-54895000D03*
D17*
X49268600Y-73500000D03*
D16*
X17622500Y-14895000D03*
X45622500Y-54895000D03*
X21560000Y-75945000D03*
X48922500Y-65495000D03*
X65622500Y-14895000D03*
X32922500Y-49495000D03*
X49622500Y-38895000D03*
X64922500Y-53500000D03*
X85622500Y-22895000D03*
X65622500Y-54895000D03*
X53475000Y-27995000D03*
X77560000Y-75945000D03*
X61560000Y-75945000D03*
X33000000Y-73500000D03*
D17*
X43372500Y-53250000D03*
D16*
X61545000Y-70895000D03*
X57475000Y-43995000D03*
X69545000Y-70895000D03*
X17622500Y-54895000D03*
X93622500Y-22895000D03*
X33622500Y-62895000D03*
X32922500Y-25495000D03*
X33622500Y-38895000D03*
X41560000Y-59945000D03*
X49545000Y-70895000D03*
X85560000Y-59945000D03*
X17622500Y-38895000D03*
X29622500Y-38895000D03*
X61475000Y-67995000D03*
X57560000Y-59945000D03*
X93475000Y-51945000D03*
X73475000Y-67995000D03*
D17*
X59172500Y-37495000D03*
D16*
X41475000Y-27995000D03*
X45622500Y-38895000D03*
X25475000Y-27995000D03*
X25622500Y-22895000D03*
X48922500Y-45495000D03*
X21475000Y-67995000D03*
X37622500Y-38895000D03*
D17*
X84750000Y-73500000D03*
D16*
X69475000Y-43995000D03*
X45475000Y-35995000D03*
X57622500Y-46895000D03*
X65000000Y-73500000D03*
X49007500Y-17500000D03*
X61622500Y-38895000D03*
X81622500Y-14895000D03*
X93560000Y-59945000D03*
X65622500Y-30895000D03*
X21622500Y-30895000D03*
X64922500Y-33495000D03*
X80922500Y-45495000D03*
X80922500Y-65495000D03*
X93475000Y-43995000D03*
X37506250Y-19995000D03*
X93622500Y-54895000D03*
X49622500Y-62895000D03*
X65622500Y-46895000D03*
X89622500Y-54895000D03*
X17476250Y-51945000D03*
X65000000Y-57500000D03*
X37545000Y-70895000D03*
X33622500Y-30895000D03*
X93622500Y-14895000D03*
X77475000Y-35995000D03*
X85622500Y-14895000D03*
X29545000Y-70895000D03*
X33622500Y-46895000D03*
X81622500Y-38895000D03*
X93475000Y-67995000D03*
X17622500Y-62895000D03*
X73560000Y-59945000D03*
X45622500Y-46895000D03*
X48922500Y-69495000D03*
X81622500Y-30895000D03*
X77560000Y-59945000D03*
X29622500Y-46895000D03*
X53506250Y-19995000D03*
X41475000Y-43995000D03*
X53475000Y-35995000D03*
X77622500Y-46895000D03*
X81622500Y-22895000D03*
X53622500Y-38895000D03*
X37622500Y-14895000D03*
X61622500Y-14895000D03*
X33007500Y-17500000D03*
X45560000Y-59945000D03*
X80922500Y-37495000D03*
X17490000Y-41495000D03*
X89475000Y-43995000D03*
X89506250Y-19995000D03*
X33622500Y-22895000D03*
X37622500Y-30895000D03*
X73622500Y-30895000D03*
X77622500Y-30895000D03*
X80922500Y-33495000D03*
X45475000Y-51945000D03*
X93475000Y-35995000D03*
X93545000Y-70895000D03*
X21475000Y-43995000D03*
X81000000Y-57500000D03*
X32922500Y-65495000D03*
X65007500Y-21500000D03*
X29560000Y-59945000D03*
X65000000Y-77450000D03*
X53560000Y-75945000D03*
X64922500Y-29495000D03*
X57545000Y-70895000D03*
X48922500Y-41495000D03*
X33000000Y-57500000D03*
X29475000Y-67995000D03*
X65622500Y-38895000D03*
X93560000Y-75945000D03*
X48922500Y-37495000D03*
X17567500Y-57500000D03*
X45622500Y-30895000D03*
D17*
X75331100Y-21750000D03*
D16*
X89622500Y-46895000D03*
X17622500Y-30895000D03*
X89475000Y-67995000D03*
X45622500Y-22895000D03*
X93622500Y-38895000D03*
X73506250Y-19995000D03*
X93622500Y-46895000D03*
X73475000Y-51945000D03*
X61475000Y-27995000D03*
X64922500Y-45495000D03*
X29475000Y-35995000D03*
X33622500Y-14895000D03*
X29622500Y-62895000D03*
X53622500Y-14895000D03*
X29475000Y-51945000D03*
X25506250Y-19995000D03*
X81050000Y-73450000D03*
D17*
X43433900Y-21500000D03*
D16*
X69560000Y-75945000D03*
X89622500Y-62895000D03*
X80922500Y-69495000D03*
X21622500Y-14895000D03*
X45622500Y-62895000D03*
X32922500Y-41495000D03*
X69475000Y-67995000D03*
X81007500Y-17500000D03*
X73622500Y-46895000D03*
X53560000Y-59945000D03*
X45622500Y-14895000D03*
X77622500Y-38895000D03*
X41622500Y-30895000D03*
X32922500Y-37495000D03*
X73622500Y-62895000D03*
X29475000Y-43995000D03*
X49007500Y-21500000D03*
X57475000Y-51945000D03*
D17*
X25500000Y-73500000D03*
D16*
X29506250Y-19995000D03*
X77622500Y-14895000D03*
X77475000Y-67995000D03*
X49622500Y-46895000D03*
X37560000Y-59945000D03*
X17490000Y-33495000D03*
X45560000Y-75945000D03*
X49000000Y-77450000D03*
X53622500Y-62895000D03*
X57622500Y-62895000D03*
X37622500Y-22895000D03*
X25545000Y-70895000D03*
X65007500Y-17500000D03*
X25622500Y-54895000D03*
X25622500Y-46895000D03*
X89475000Y-27995000D03*
X17622500Y-46895000D03*
X57622500Y-30895000D03*
X25475000Y-35995000D03*
X37475000Y-67995000D03*
X49622500Y-22895000D03*
X85475000Y-51945000D03*
X57622500Y-14895000D03*
X17561250Y-75945000D03*
X57506250Y-19995000D03*
X32922500Y-45495000D03*
X53475000Y-67995000D03*
X21506250Y-19995000D03*
X85506250Y-19995000D03*
X41475000Y-67995000D03*
X85622500Y-54895000D03*
X69560000Y-59945000D03*
X81622500Y-54895000D03*
X73622500Y-38895000D03*
X25560000Y-75945000D03*
X53475000Y-51945000D03*
D17*
X74806800Y-53500000D03*
D16*
X25622500Y-30895000D03*
X89475000Y-51945000D03*
X48922500Y-53500000D03*
X85560000Y-75945000D03*
X64922500Y-65495000D03*
X73475000Y-35995000D03*
D17*
X19922500Y-37495000D03*
D16*
X85622500Y-46895000D03*
X45506250Y-19995000D03*
X49000000Y-61500000D03*
X61560000Y-59945000D03*
X65545000Y-70895000D03*
X17507500Y-19995000D03*
X45475000Y-67995000D03*
X85475000Y-35995000D03*
X48922500Y-33495000D03*
X41622500Y-62895000D03*
X57622500Y-54895000D03*
X17490000Y-65495000D03*
X53475000Y-43995000D03*
X85622500Y-30895000D03*
X45475000Y-43995000D03*
X37475000Y-27995000D03*
X21622500Y-22895000D03*
X29622500Y-22895000D03*
X41622500Y-38895000D03*
X85475000Y-43995000D03*
X61622500Y-54895000D03*
X85475000Y-27995000D03*
X49500000Y-27950000D03*
X65000000Y-61500000D03*
X61622500Y-46895000D03*
X29560000Y-75945000D03*
X77475000Y-27995000D03*
X73475000Y-27995000D03*
X61506250Y-19995000D03*
%TD*%
D18*
%TO.N,DIN2*%
X10000000Y-55000000D02*
X11000000Y-55000000D01*
X11000000Y-55000000D02*
X11750000Y-54250000D01*
X11750000Y-54250000D02*
X11750000Y-48250000D01*
D19*
%TO.N,VDD*%
X51398900Y-37500000D02*
X53533200Y-37500000D01*
X38000000Y-53250000D02*
X35648900Y-53250000D01*
D18*
X35786400Y-21445000D02*
X35731400Y-21500000D01*
D19*
X69831100Y-21750000D02*
X71731400Y-21750000D01*
D18*
X27681100Y-37495000D02*
X27686100Y-37500000D01*
D19*
X83398900Y-37250000D02*
X85543200Y-37250000D01*
X69422500Y-53500000D02*
X71648900Y-53500000D01*
X54750000Y-73500000D02*
X56941100Y-73500000D01*
X22153900Y-73500000D02*
X20000000Y-73500000D01*
X88191100Y-73500000D02*
X90500000Y-73500000D01*
X37988900Y-21445000D02*
X35786400Y-21445000D01*
D18*
X53533200Y-37500000D02*
X53538200Y-37495000D01*
D19*
X25403900Y-37495000D02*
X27681100Y-37495000D01*
%TO.N,GND*%
X19922500Y-37495000D02*
X22143900Y-37495000D01*
X75331100Y-21750000D02*
X77268600Y-21750000D01*
X27691100Y-73500000D02*
X25500000Y-73500000D01*
X84750000Y-73500000D02*
X82653900Y-73500000D01*
D18*
X59167500Y-37500000D02*
X59172500Y-37495000D01*
D19*
X41186100Y-53250000D02*
X43372500Y-53250000D01*
X77186100Y-53500000D02*
X74806800Y-53500000D01*
X41268600Y-21500000D02*
X43433900Y-21500000D01*
X49268600Y-73500000D02*
X51403900Y-73500000D01*
X56936100Y-37500000D02*
X59167500Y-37500000D01*
D18*
X22143900Y-37495000D02*
X22148900Y-37500000D01*
D19*
X88936100Y-37250000D02*
X91177500Y-37250000D01*
%TD*%
M02*
