M48
; DRILL file {KiCad 9.0.4} date 2025-10-26T23:37:27-0400
; FORMAT={-:-/ absolute / inch / decimal}
; #@! TF.CreationDate,2025-10-26T23:37:27-04:00
; #@! TF.GenerationSoftware,Kicad,Pcbnew,9.0.4
; #@! TF.FileFunction,Plated,1,4,PTH
FMAT,2
INCH
; #@! TA.AperFunction,Plated,PTH,ViaDrill
T1C0.0118
; #@! TA.AperFunction,Plated,PTH,ViaDrill
T2C0.0236
; #@! TA.AperFunction,Plated,PTH,ComponentDrill
T3C0.0295
; #@! TA.AperFunction,Plated,PTH,ComponentDrill
T4C0.0669
%
G90
G05
T1
X0.689Y-0.7894
X0.6911Y-1.1024
X0.6911Y-1.4173
X0.6911Y-1.7323
X0.6911Y-2.0472
X0.6911Y-2.3622
X0.6911Y-2.6772
X0.6911Y-2.9921
X0.6916Y-0.689
X0.6916Y-1.0039
X0.6916Y-1.3189
X0.6916Y-1.6339
X0.6916Y-1.9488
X0.6916Y-2.2638
X0.6916Y-2.5787
X0.6916Y-2.8937
X0.6929Y-0.7461
X0.6929Y-0.6299
X0.6929Y-0.9449
X0.6929Y-1.2598
X0.6929Y-1.5748
X0.6929Y-1.8898
X0.6929Y-2.2047
X0.6929Y-2.5197
X0.6929Y-2.8346
X0.695Y-1.0591
X0.695Y-1.374
X0.695Y-1.689
X0.695Y-2.0039
X0.695Y-2.3189
X0.695Y-2.6339
X0.695Y-2.9488
X0.6969Y-0.5866
X0.6969Y-0.9016
X0.6969Y-1.2165
X0.6969Y-1.5315
X0.6969Y-1.8465
X0.6969Y-2.1614
X0.6969Y-2.4764
X0.6969Y-2.7913
X0.8464Y-0.7894
X0.8485Y-1.1024
X0.8485Y-1.7323
X0.8485Y-2.0472
X0.8485Y-2.3622
X0.8485Y-2.6772
X0.8485Y-2.9921
X0.8503Y-0.7461
X0.8504Y-0.6299
X0.8504Y-0.9449
X0.8504Y-1.2598
X0.8504Y-1.5748
X0.8504Y-1.8898
X0.8504Y-2.2047
X0.8504Y-2.5197
X0.8525Y-1.0591
X0.8525Y-1.374
X0.8525Y-1.689
X0.8525Y-2.0039
X0.8525Y-2.3189
X0.8525Y-2.6339
X0.8543Y-0.5866
X0.8543Y-0.9016
X0.8543Y-1.2165
X0.8543Y-1.8465
X0.8543Y-2.1614
X0.8543Y-2.4764
X0.8543Y-2.7913
X1.0039Y-0.7894
X1.006Y-1.1024
X1.006Y-1.4173
X1.006Y-1.7323
X1.006Y-2.0472
X1.006Y-2.3622
X1.006Y-2.6772
X1.006Y-2.9921
X1.0078Y-0.7461
X1.0079Y-0.6299
X1.0079Y-0.9449
X1.0079Y-1.2598
X1.0079Y-1.5748
X1.0079Y-1.8898
X1.0079Y-2.2047
X1.0079Y-2.5197
X1.0079Y-2.8346
X1.0099Y-1.0591
X1.0099Y-1.374
X1.0099Y-1.689
X1.0099Y-2.0039
X1.0099Y-2.3189
X1.0099Y-2.6339
X1.0099Y-2.9488
X1.0118Y-0.5866
X1.0118Y-0.9016
X1.0118Y-1.2165
X1.0118Y-1.5315
X1.0118Y-1.8465
X1.0118Y-2.1614
X1.0118Y-2.4764
X1.0118Y-2.7913
X1.1614Y-0.7894
X1.1635Y-1.1024
X1.1635Y-1.4173
X1.1635Y-1.7323
X1.1635Y-2.0472
X1.1635Y-2.3622
X1.1635Y-2.6772
X1.1635Y-2.9921
X1.1653Y-0.7461
X1.1654Y-0.6299
X1.1654Y-0.9449
X1.1654Y-1.2598
X1.1654Y-1.5748
X1.1654Y-1.8898
X1.1654Y-2.2047
X1.1654Y-2.5197
X1.1654Y-2.8346
X1.1674Y-1.0591
X1.1674Y-1.374
X1.1674Y-1.689
X1.1674Y-2.0039
X1.1674Y-2.3189
X1.1674Y-2.6339
X1.1674Y-2.9488
X1.1693Y-0.5866
X1.1693Y-0.9016
X1.1693Y-1.2165
X1.1693Y-1.5315
X1.1693Y-1.8465
X1.1693Y-2.1614
X1.1693Y-2.4764
X1.1693Y-2.7913
X1.2992Y-0.689
X1.2992Y-0.8465
X1.2992Y-1.0039
X1.2992Y-1.1614
X1.2992Y-1.3189
X1.2992Y-1.4764
X1.2992Y-1.6339
X1.2992Y-1.7913
X1.2992Y-1.9488
X1.2992Y-2.1063
X1.2992Y-2.2638
X1.2992Y-2.4213
X1.2992Y-2.5787
X1.2992Y-2.7362
X1.2992Y-2.8937
X1.2992Y-3.0512
X1.3228Y-0.7461
X1.3228Y-0.6299
X1.3228Y-0.9449
X1.3228Y-1.2598
X1.3228Y-1.5748
X1.3228Y-1.8898
X1.3228Y-2.2047
X1.3228Y-2.5197
X1.3228Y-2.8346
X1.3249Y-1.0591
X1.3249Y-1.374
X1.3249Y-1.689
X1.3249Y-2.0039
X1.3249Y-2.3189
X1.3249Y-2.6339
X1.3249Y-2.9488
X1.3268Y-0.5866
X1.3268Y-0.9016
X1.3268Y-1.2165
X1.3268Y-1.5315
X1.3268Y-1.8465
X1.3268Y-2.1614
X1.3268Y-2.4764
X1.3268Y-2.7913
X1.4763Y-0.7894
X1.4784Y-1.1024
X1.4784Y-1.4173
X1.4784Y-1.7323
X1.4784Y-2.0472
X1.4784Y-2.3622
X1.4784Y-2.6772
X1.4784Y-2.9921
X1.4803Y-0.7461
X1.4803Y-0.6299
X1.4803Y-0.9449
X1.4803Y-1.2598
X1.4803Y-1.5748
X1.4803Y-1.8898
X1.4803Y-2.2047
X1.4803Y-2.5197
X1.4803Y-2.8346
X1.4824Y-1.0591
X1.4824Y-1.374
X1.4824Y-1.689
X1.4824Y-2.0039
X1.4824Y-2.3189
X1.4824Y-2.6339
X1.4824Y-2.9488
X1.4843Y-0.5866
X1.4843Y-0.9016
X1.4843Y-1.2165
X1.4843Y-1.5315
X1.4843Y-1.8465
X1.4843Y-2.1614
X1.4843Y-2.4764
X1.4843Y-2.7913
X1.6359Y-1.1024
X1.6359Y-1.7323
X1.6359Y-2.3622
X1.6359Y-2.6772
X1.6359Y-2.9921
X1.6377Y-0.7461
X1.6378Y-0.6299
X1.6378Y-0.9449
X1.6378Y-1.2598
X1.6378Y-1.5748
X1.6378Y-1.8898
X1.6378Y-2.2047
X1.6378Y-2.5197
X1.6378Y-2.8346
X1.6391Y-1.4173
X1.6399Y-1.0591
X1.6399Y-1.374
X1.6399Y-1.689
X1.6399Y-2.0039
X1.6399Y-2.3189
X1.6399Y-2.6339
X1.6399Y-2.9488
X1.6417Y-0.5866
X1.6417Y-1.2165
X1.6417Y-1.5315
X1.6417Y-1.8465
X1.6417Y-2.4764
X1.6417Y-2.7913
X1.7913Y-0.7894
X1.7934Y-1.1024
X1.7934Y-1.4173
X1.7934Y-1.7323
X1.7934Y-2.0472
X1.7934Y-2.3622
X1.7934Y-2.6772
X1.7934Y-2.9921
X1.7952Y-0.7461
X1.7953Y-0.6299
X1.7953Y-0.9449
X1.7953Y-1.2598
X1.7953Y-1.5748
X1.7953Y-1.8898
X1.7953Y-2.2047
X1.7953Y-2.5197
X1.7953Y-2.8346
X1.7973Y-1.0591
X1.7973Y-1.374
X1.7973Y-1.689
X1.7973Y-2.0039
X1.7973Y-2.3189
X1.7973Y-2.6339
X1.7973Y-2.9488
X1.7992Y-0.5866
X1.7992Y-0.9016
X1.7992Y-1.2165
X1.7992Y-1.5315
X1.7992Y-1.8465
X1.7992Y-2.1614
X1.7992Y-2.4764
X1.7992Y-2.7913
X1.9291Y-0.689
X1.9291Y-0.8465
X1.9291Y-1.0039
X1.9291Y-1.1614
X1.9291Y-1.3189
X1.9291Y-1.4764
X1.9291Y-1.6339
X1.9291Y-1.7913
X1.9291Y-1.9488
X1.9291Y-2.1063
X1.9291Y-2.2638
X1.9291Y-2.4213
X1.9291Y-2.5787
X1.9291Y-2.7362
X1.9291Y-3.0512
X1.9527Y-0.7461
X1.9528Y-0.6299
X1.9528Y-0.9449
X1.9528Y-1.2598
X1.9528Y-1.5748
X1.9528Y-1.8898
X1.9528Y-2.2047
X1.9528Y-2.5197
X1.9528Y-2.8346
X1.9548Y-1.0591
X1.9548Y-1.374
X1.9548Y-1.689
X1.9548Y-2.0039
X1.9548Y-2.3189
X1.9548Y-2.6339
X1.9548Y-2.9488
X1.9567Y-0.5866
X1.9567Y-0.9016
X1.9567Y-1.2165
X1.9567Y-1.5315
X1.9567Y-1.8465
X1.9567Y-2.1614
X1.9567Y-2.4764
X1.9567Y-2.7913
X2.1062Y-0.7894
X2.1084Y-1.1024
X2.1084Y-1.4173
X2.1084Y-1.7323
X2.1084Y-2.0472
X2.1084Y-2.3622
X2.1084Y-2.6772
X2.1084Y-2.9921
X2.1102Y-0.7461
X2.1102Y-0.6299
X2.1102Y-0.9449
X2.1102Y-1.2598
X2.1102Y-1.5748
X2.1102Y-1.8898
X2.1102Y-2.2047
X2.1102Y-2.5197
X2.1102Y-2.8346
X2.1123Y-1.0591
X2.1123Y-1.374
X2.1123Y-1.689
X2.1123Y-2.0039
X2.1123Y-2.3189
X2.1123Y-2.6339
X2.1123Y-2.9488
X2.1142Y-0.5866
X2.1142Y-0.9016
X2.1142Y-1.2165
X2.1142Y-1.5315
X2.1142Y-1.8465
X2.1142Y-2.1614
X2.1142Y-2.4764
X2.1142Y-2.7913
X2.2637Y-0.7894
X2.2658Y-1.1024
X2.2658Y-1.7323
X2.2658Y-2.0472
X2.2658Y-2.3622
X2.2658Y-2.6772
X2.2658Y-2.9921
X2.2677Y-0.7461
X2.2677Y-0.6299
X2.2677Y-0.9449
X2.2677Y-1.2598
X2.2677Y-1.5748
X2.2677Y-1.8898
X2.2677Y-2.2047
X2.2677Y-2.5197
X2.2698Y-1.0591
X2.2698Y-1.374
X2.2698Y-1.689
X2.2698Y-2.0039
X2.2698Y-2.3189
X2.2698Y-2.6339
X2.2717Y-0.5866
X2.2717Y-0.9016
X2.2717Y-1.2165
X2.2717Y-1.8465
X2.2717Y-2.1614
X2.2717Y-2.4764
X2.2717Y-2.7913
X2.4212Y-0.7894
X2.4233Y-1.1024
X2.4233Y-1.4173
X2.4233Y-1.7323
X2.4233Y-2.0472
X2.4233Y-2.3622
X2.4233Y-2.6772
X2.4233Y-2.9921
X2.4251Y-0.7461
X2.4252Y-0.6299
X2.4252Y-0.9449
X2.4252Y-1.2598
X2.4252Y-1.5748
X2.4252Y-1.8898
X2.4252Y-2.2047
X2.4252Y-2.5197
X2.4252Y-2.8346
X2.4273Y-1.0591
X2.4273Y-1.374
X2.4273Y-1.689
X2.4273Y-2.0039
X2.4273Y-2.3189
X2.4273Y-2.6339
X2.4273Y-2.9488
X2.4291Y-0.5866
X2.4291Y-0.9016
X2.4291Y-1.2165
X2.4291Y-1.5315
X2.4291Y-1.8465
X2.4291Y-2.1614
X2.4291Y-2.4764
X2.4291Y-2.7913
X2.5591Y-0.689
X2.5591Y-0.8465
X2.5591Y-1.0039
X2.5591Y-1.1614
X2.5591Y-1.3189
X2.5591Y-1.4764
X2.5591Y-1.6339
X2.5591Y-1.7913
X2.5591Y-1.9488
X2.5591Y-2.1063
X2.5591Y-2.2638
X2.5591Y-2.4213
X2.5591Y-2.5787
X2.5591Y-2.7362
X2.5591Y-2.8937
X2.5591Y-3.0512
X2.5826Y-0.7461
X2.5827Y-0.6299
X2.5827Y-0.9449
X2.5827Y-1.2598
X2.5827Y-1.5748
X2.5827Y-1.8898
X2.5827Y-2.2047
X2.5827Y-2.5197
X2.5827Y-2.8346
X2.5847Y-1.0591
X2.5847Y-1.374
X2.5847Y-1.689
X2.5847Y-2.0039
X2.5847Y-2.3189
X2.5847Y-2.6339
X2.5847Y-2.9488
X2.5866Y-0.5866
X2.5866Y-0.9016
X2.5866Y-1.2165
X2.5866Y-1.5315
X2.5866Y-1.8465
X2.5866Y-2.1614
X2.5866Y-2.4764
X2.5866Y-2.7913
X2.7362Y-0.7894
X2.7383Y-1.1024
X2.7383Y-1.4173
X2.7383Y-1.7323
X2.7383Y-2.0472
X2.7383Y-2.3622
X2.7383Y-2.6772
X2.7383Y-2.9921
X2.7401Y-0.7461
X2.7402Y-0.6299
X2.7402Y-0.9449
X2.7402Y-1.2598
X2.7402Y-1.5748
X2.7402Y-1.8898
X2.7402Y-2.2047
X2.7402Y-2.5197
X2.7402Y-2.8346
X2.7422Y-1.0591
X2.7422Y-1.374
X2.7422Y-1.689
X2.7422Y-2.0039
X2.7422Y-2.3189
X2.7422Y-2.6339
X2.7422Y-2.9488
X2.7441Y-0.5866
X2.7441Y-0.9016
X2.7441Y-1.2165
X2.7441Y-1.5315
X2.7441Y-1.8465
X2.7441Y-2.1614
X2.7441Y-2.4764
X2.7441Y-2.7913
X2.8937Y-0.7894
X2.8958Y-1.1024
X2.8958Y-1.4173
X2.8958Y-1.7323
X2.8958Y-2.0472
X2.8958Y-2.3622
X2.8958Y-2.6772
X2.8958Y-2.9921
X2.8976Y-0.7461
X2.8976Y-0.6299
X2.8976Y-0.9449
X2.8976Y-1.2598
X2.8976Y-1.5748
X2.8976Y-1.8898
X2.8976Y-2.2047
X2.8976Y-2.5197
X2.8976Y-2.8346
X2.8997Y-1.0591
X2.8997Y-1.374
X2.8997Y-1.689
X2.8997Y-2.0039
X2.8997Y-2.3189
X2.8997Y-2.6339
X2.8997Y-2.9488
X2.9016Y-0.5866
X2.9016Y-0.9016
X2.9016Y-1.2165
X2.9016Y-1.5315
X2.9016Y-1.8465
X2.9016Y-2.1614
X2.9016Y-2.4764
X2.9016Y-2.7913
X3.0532Y-1.1024
X3.0532Y-1.4173
X3.0532Y-1.7323
X3.0532Y-2.3622
X3.0532Y-2.6772
X3.0532Y-2.9921
X3.0551Y-0.7461
X3.0551Y-0.6299
X3.0551Y-0.9449
X3.0551Y-1.2598
X3.0551Y-1.5748
X3.0551Y-1.8898
X3.0551Y-2.2047
X3.0551Y-2.5197
X3.0551Y-2.8346
X3.0572Y-1.0591
X3.0572Y-1.374
X3.0572Y-1.689
X3.0572Y-2.0039
X3.0572Y-2.3189
X3.0572Y-2.6339
X3.0572Y-2.9488
X3.0591Y-0.5866
X3.0591Y-1.2165
X3.0591Y-1.5315
X3.0591Y-1.8465
X3.0591Y-2.4764
X3.0591Y-2.7913
X3.189Y-0.689
X3.189Y-0.8465
X3.189Y-1.0039
X3.189Y-1.1614
X3.189Y-1.3189
X3.189Y-1.4764
X3.189Y-1.6339
X3.189Y-1.7913
X3.189Y-1.9488
X3.189Y-2.1063
X3.189Y-2.2638
X3.189Y-2.4213
X3.189Y-2.5787
X3.189Y-2.7362
X3.189Y-3.0512
X3.2087Y-2.9724
X3.2122Y-2.799
X3.2125Y-0.7461
X3.2126Y-0.6299
X3.2126Y-0.9449
X3.2126Y-1.2598
X3.2126Y-1.5748
X3.2126Y-1.8898
X3.2126Y-2.2047
X3.2126Y-2.5197
X3.2147Y-1.0591
X3.2147Y-1.374
X3.2147Y-1.689
X3.2147Y-2.0039
X3.2147Y-2.3189
X3.2147Y-2.6339
X3.2165Y-0.5866
X3.2165Y-0.9016
X3.2165Y-1.2165
X3.2165Y-1.5315
X3.2165Y-1.8465
X3.2165Y-2.1614
X3.2165Y-2.4764
X3.3661Y-0.7894
X3.3682Y-1.1024
X3.3682Y-1.4173
X3.3682Y-1.7323
X3.3682Y-2.0472
X3.3682Y-2.3622
X3.3682Y-2.6772
X3.3682Y-2.9921
X3.37Y-0.7461
X3.3701Y-0.6299
X3.3701Y-0.9449
X3.3701Y-1.2598
X3.3701Y-1.5748
X3.3701Y-1.8898
X3.3701Y-2.2047
X3.3701Y-2.5197
X3.3701Y-2.8346
X3.3721Y-1.0591
X3.3721Y-1.374
X3.3721Y-1.689
X3.3721Y-2.0039
X3.3721Y-2.3189
X3.3721Y-2.6339
X3.3721Y-2.9488
X3.374Y-0.5866
X3.374Y-0.9016
X3.374Y-1.2165
X3.374Y-1.5315
X3.374Y-1.8465
X3.374Y-2.1614
X3.374Y-2.4764
X3.374Y-2.7913
X3.5236Y-0.7894
X3.5257Y-1.1024
X3.5257Y-1.7323
X3.5257Y-2.0472
X3.5257Y-2.3622
X3.5257Y-2.6772
X3.5257Y-2.9921
X3.5275Y-0.7461
X3.5276Y-0.6299
X3.5276Y-0.9449
X3.5276Y-1.2598
X3.5276Y-1.5748
X3.5276Y-1.8898
X3.5276Y-2.2047
X3.5276Y-2.5197
X3.5296Y-1.0591
X3.5296Y-1.374
X3.5296Y-1.689
X3.5296Y-2.0039
X3.5296Y-2.3189
X3.5296Y-2.6339
X3.5315Y-0.5866
X3.5315Y-0.9016
X3.5315Y-1.2165
X3.5315Y-1.8465
X3.5315Y-2.1614
X3.5315Y-2.4764
X3.5315Y-2.7913
X3.6811Y-0.7894
X3.6811Y-0.689
X3.6811Y-1.0039
X3.6811Y-1.3189
X3.6811Y-1.6339
X3.6811Y-2.2638
X3.6811Y-2.8937
X3.6832Y-1.1024
X3.6832Y-1.4173
X3.6832Y-1.7323
X3.6832Y-2.0472
X3.6832Y-2.3622
X3.6832Y-2.6772
X3.6832Y-2.9921
X3.685Y-0.7461
X3.685Y-0.6299
X3.685Y-0.9449
X3.685Y-1.2598
X3.685Y-1.5748
X3.685Y-1.8898
X3.685Y-2.2047
X3.685Y-2.5197
X3.685Y-2.8346
X3.6871Y-1.0591
X3.6871Y-1.374
X3.6871Y-1.689
X3.6871Y-1.9488
X3.6871Y-2.0039
X3.6871Y-2.3189
X3.6871Y-2.5787
X3.6871Y-2.6339
X3.6871Y-2.9488
X3.689Y-0.5866
X3.689Y-0.9016
X3.689Y-1.2165
X3.689Y-1.5315
X3.689Y-1.8465
X3.689Y-2.1614
X3.689Y-2.4764
X3.689Y-2.7913
T2
X0.7874Y-1.4764
X0.7874Y-2.8937
X1.0032Y-1.4764
X1.0039Y-2.8937
X1.4862Y-2.1063
X1.4953Y-0.8465
X1.7119Y-0.8465
X1.7165Y-2.1024
X1.9397Y-2.8937
X2.1109Y-1.4764
X2.1555Y-2.8937
X2.3327Y-1.4764
X2.7362Y-2.1063
X2.737Y-0.8465
X2.9482Y-2.1063
X2.9535Y-0.8465
X3.3366Y-2.8937
X3.3805Y-1.4764
X3.563Y-2.8937
X3.6024Y-1.4764
T3
X0.3474Y-2.0866
X0.3474Y-2.1654
X0.3474Y-2.2441
X0.3474Y-2.3228
X0.3474Y-2.4016
X0.3474Y-2.4803
X0.3474Y-2.5591
X0.3474Y-2.6378
T4
X3.9764Y-2.4819
X3.9764Y-2.6378
M30
