%TF.GenerationSoftware,KiCad,Pcbnew,9.0.4*%
%TF.CreationDate,2025-10-23T14:40:02-04:00*%
%TF.ProjectId,display,64697370-6c61-4792-9e6b-696361645f70,0.1.0*%
%TF.SameCoordinates,Original*%
%TF.FileFunction,Profile,NP*%
%FSLAX46Y46*%
G04 Gerber Fmt 4.6, Leading zero omitted, Abs format (unit mm)*
G04 Created by KiCad (PCBNEW 9.0.4) date 2025-10-23 14:40:02*
%MOMM*%
%LPD*%
G01*
G04 APERTURE LIST*
%TA.AperFunction,Profile*%
%ADD10C,0.050000*%
%TD*%
G04 APERTURE END LIST*
D10*
X9500000Y-47000000D02*
X9500000Y-20000000D01*
X105000000Y-13000000D02*
X105000000Y-18000000D01*
X7000000Y-18000000D02*
X7000000Y-13000000D01*
X102600000Y-16000000D02*
G75*
G02*
X99400000Y-16000000I-1600000J0D01*
G01*
X99400000Y-16000000D02*
G75*
G02*
X102600000Y-16000000I1600000J0D01*
G01*
X104000000Y-79000000D02*
X8000000Y-79000000D01*
X8000000Y-79000000D02*
X7000000Y-78000000D01*
X105000000Y-73000000D02*
X105000000Y-60000000D01*
X105000000Y-18000000D02*
X100000000Y-22000000D01*
X9500000Y-20000000D02*
X7000000Y-18000000D01*
X102600000Y-75000000D02*
G75*
G02*
X99400000Y-75000000I-1600000J0D01*
G01*
X99400000Y-75000000D02*
G75*
G02*
X102600000Y-75000000I1600000J0D01*
G01*
X100000000Y-22000000D02*
X100000000Y-56000000D01*
X104000000Y-12000000D02*
X8000000Y-12000000D01*
X7000000Y-13000000D02*
X8000000Y-12000000D01*
X105000000Y-78000000D02*
X104000000Y-79000000D01*
X12600000Y-16000000D02*
G75*
G02*
X9400000Y-16000000I-1600000J0D01*
G01*
X9400000Y-16000000D02*
G75*
G02*
X12600000Y-16000000I1600000J0D01*
G01*
X7000000Y-49000000D02*
X7000000Y-73000000D01*
X105000000Y-60000000D02*
X100000000Y-56000000D01*
X104000000Y-12000000D02*
X105000000Y-13000000D01*
X7000000Y-49000000D02*
X9500000Y-47000000D01*
X105000000Y-73000000D02*
X105000000Y-78000000D01*
X12600000Y-75000000D02*
G75*
G02*
X9400000Y-75000000I-1600000J0D01*
G01*
X9400000Y-75000000D02*
G75*
G02*
X12600000Y-75000000I1600000J0D01*
G01*
X7000000Y-78000000D02*
X7000000Y-73000000D01*
M02*
