M48
; DRILL file {KiCad 9.0.5} date 2025-11-04T14:37:27-0500
; FORMAT={-:-/ absolute / inch / decimal}
; #@! TF.CreationDate,2025-11-04T14:37:27-05:00
; #@! TF.GenerationSoftware,Kicad,Pcbnew,9.0.5
; #@! TF.FileFunction,Plated,1,4,PTH
FMAT,2
INCH
; #@! TA.AperFunction,Plated,PTH,ViaDrill
T1C0.0118
; #@! TA.AperFunction,Plated,PTH,ViaDrill
T2C0.0236
; #@! TA.AperFunction,Plated,PTH,ComponentDrill
T3C0.0295
; #@! TA.AperFunction,Plated,PTH,ComponentDrill
T4C0.0669
; #@! TA.AperFunction,Plated,PTH,ComponentDrill
T5C0.1260
%
G90
G05
T1
X0.4626Y-1.8996
X0.6868Y-2.8344
X0.688Y-1.1022
X0.688Y-1.4171
X0.688Y-1.7321
X0.688Y-2.0451
X0.688Y-2.677
X0.6886Y-1.0037
X0.6886Y-1.3187
X0.6886Y-1.6337
X0.6886Y-1.9486
X0.6886Y-2.5785
X0.6893Y-0.7872
X0.6899Y-0.6297
X0.6899Y-0.9447
X0.6899Y-1.2596
X0.6899Y-1.5746
X0.6899Y-1.8896
X0.6899Y-2.2045
X0.6899Y-2.5195
X0.6907Y-2.7911
X0.6914Y-2.36
X0.6914Y-2.99
X0.6916Y-2.2638
X0.6916Y-2.8937
X0.6919Y-0.689
X0.6919Y-1.0589
X0.6919Y-1.3738
X0.6919Y-1.6888
X0.6919Y-2.0018
X0.6919Y-2.6337
X0.6932Y-0.7439
X0.6938Y-0.5864
X0.6938Y-0.9014
X0.6938Y-1.2163
X0.6938Y-1.5313
X0.6938Y-1.8463
X0.6938Y-2.1612
X0.6938Y-2.4762
X0.6953Y-2.3167
X0.6953Y-2.9467
X0.8455Y-1.1022
X0.8455Y-1.7321
X0.8455Y-2.0451
X0.8455Y-2.677
X0.8467Y-0.7872
X0.8473Y-0.9447
X0.8473Y-1.2596
X0.8473Y-1.5746
X0.8473Y-1.8896
X0.8473Y-2.2045
X0.8473Y-2.5195
X0.8482Y-2.7911
X0.8488Y-2.36
X0.8488Y-2.99
X0.8494Y-1.0589
X0.8494Y-1.3738
X0.8494Y-1.6888
X0.8494Y-2.0018
X0.8494Y-2.6337
X0.8504Y-0.6303
X0.8506Y-0.7439
X0.8513Y-0.5864
X0.8513Y-0.9014
X0.8513Y-1.2163
X0.8513Y-1.8463
X0.8513Y-2.1612
X0.8513Y-2.4762
X0.8528Y-2.3167
X1.0018Y-2.8344
X1.003Y-1.1022
X1.003Y-1.4171
X1.003Y-1.7321
X1.003Y-2.0451
X1.003Y-2.677
X1.0042Y-0.7872
X1.0048Y-0.6297
X1.0048Y-0.9447
X1.0048Y-1.2596
X1.0048Y-1.5746
X1.0048Y-1.8896
X1.0048Y-2.2045
X1.0048Y-2.5195
X1.0057Y-2.7911
X1.0063Y-2.36
X1.0063Y-2.99
X1.0069Y-1.0589
X1.0069Y-1.3738
X1.0069Y-1.6888
X1.0069Y-2.0018
X1.0069Y-2.6337
X1.0081Y-0.7439
X1.0088Y-0.5864
X1.0088Y-0.9014
X1.0088Y-1.2163
X1.0088Y-1.5313
X1.0088Y-1.8463
X1.0088Y-2.1612
X1.0088Y-2.4762
X1.0102Y-2.3167
X1.0102Y-2.9467
X1.1593Y-2.8344
X1.1594Y-2.1063
X1.1604Y-1.1022
X1.1604Y-1.4171
X1.1604Y-1.7321
X1.1604Y-2.0451
X1.1604Y-2.677
X1.1614Y-0.8425
X1.1617Y-0.7872
X1.1623Y-0.6297
X1.1623Y-0.9447
X1.1623Y-1.2596
X1.1623Y-1.5746
X1.1623Y-1.8896
X1.1623Y-2.2045
X1.1623Y-2.5195
X1.1632Y-2.7911
X1.1638Y-2.36
X1.1638Y-2.99
X1.1644Y-1.0589
X1.1644Y-1.3738
X1.1644Y-1.6888
X1.1644Y-2.0018
X1.1644Y-2.6337
X1.1656Y-0.7439
X1.1662Y-0.5864
X1.1662Y-0.9014
X1.1662Y-1.2163
X1.1662Y-1.5313
X1.1662Y-1.8463
X1.1662Y-2.1612
X1.1662Y-2.4762
X1.1677Y-2.3167
X1.1677Y-2.9467
X1.168Y-2.7325
X1.1732Y-3.0551
X1.1752Y-1.7913
X1.1752Y-2.4134
X1.1791Y-1.1575
X1.185Y-1.4764
X1.2962Y-1.0037
X1.2962Y-1.1612
X1.2962Y-1.3187
X1.2962Y-1.4762
X1.2962Y-1.6337
X1.2962Y-1.7911
X1.2962Y-1.9486
X1.2962Y-2.1063
X1.2962Y-2.5785
X1.2962Y-2.736
X1.2992Y-2.2638
X1.2992Y-2.4213
X1.2992Y-2.8937
X1.2992Y-3.0492
X1.2995Y-0.689
X1.2995Y-0.8465
X1.3167Y-2.8344
X1.3198Y-0.6297
X1.3198Y-0.9447
X1.3198Y-1.2596
X1.3198Y-1.5746
X1.3198Y-1.8896
X1.3198Y-2.2045
X1.3198Y-2.5195
X1.3207Y-2.7911
X1.3219Y-1.0589
X1.3219Y-1.3738
X1.3219Y-1.6888
X1.3219Y-2.0018
X1.3219Y-2.6337
X1.3231Y-0.7439
X1.3237Y-0.5864
X1.3237Y-0.9014
X1.3237Y-1.2163
X1.3237Y-1.5313
X1.3237Y-1.8463
X1.3237Y-2.1612
X1.3237Y-2.4762
X1.3252Y-2.3167
X1.3252Y-2.9467
X1.4742Y-2.8344
X1.4754Y-1.1022
X1.4754Y-1.4171
X1.4754Y-1.7321
X1.4754Y-2.0451
X1.4754Y-2.677
X1.4766Y-0.7872
X1.4773Y-0.6297
X1.4773Y-0.9447
X1.4773Y-1.2596
X1.4773Y-1.5746
X1.4773Y-1.8896
X1.4773Y-2.2045
X1.4773Y-2.5195
X1.4781Y-2.7911
X1.4787Y-2.36
X1.4787Y-2.99
X1.4793Y-1.0589
X1.4793Y-1.3738
X1.4793Y-1.6888
X1.4793Y-2.0018
X1.4793Y-2.6337
X1.4806Y-0.7439
X1.4812Y-0.5864
X1.4812Y-0.9014
X1.4812Y-1.2163
X1.4812Y-1.5313
X1.4812Y-1.8463
X1.4812Y-2.1612
X1.4812Y-2.4762
X1.4827Y-2.3167
X1.4827Y-2.9467
X1.6317Y-2.8344
X1.6329Y-1.1022
X1.6329Y-1.7321
X1.6329Y-2.677
X1.6347Y-0.6297
X1.6347Y-0.9447
X1.6347Y-1.2596
X1.6347Y-1.5746
X1.6347Y-1.8896
X1.6347Y-2.2045
X1.6347Y-2.5195
X1.6356Y-2.7911
X1.6361Y-1.4171
X1.6362Y-2.36
X1.6362Y-2.99
X1.6368Y-1.0589
X1.6368Y-1.3738
X1.6368Y-1.6888
X1.6368Y-2.0018
X1.6368Y-2.6337
X1.638Y-0.7439
X1.6387Y-0.5864
X1.6387Y-1.2163
X1.6387Y-1.5313
X1.6387Y-1.8463
X1.6387Y-2.4762
X1.6402Y-2.3167
X1.6402Y-2.9467
X1.7892Y-2.8344
X1.7894Y-2.7343
X1.7904Y-1.1022
X1.7904Y-1.4171
X1.7904Y-1.7321
X1.7904Y-2.0451
X1.7904Y-2.677
X1.7916Y-0.7872
X1.7922Y-0.6297
X1.7922Y-0.9447
X1.7922Y-1.2596
X1.7922Y-1.5746
X1.7922Y-1.8896
X1.7922Y-2.2045
X1.7922Y-2.5195
X1.7931Y-2.7911
X1.7933Y-2.4193
X1.7937Y-2.36
X1.7937Y-2.99
X1.7943Y-1.0589
X1.7943Y-1.3738
X1.7943Y-1.6888
X1.7943Y-2.0018
X1.7943Y-2.6337
X1.7955Y-0.7439
X1.7962Y-0.5864
X1.7962Y-0.9014
X1.7962Y-1.2163
X1.7962Y-1.5313
X1.7962Y-1.8463
X1.7962Y-2.1612
X1.7962Y-2.4762
X1.7976Y-2.3167
X1.7976Y-2.9467
X1.8012Y-1.7933
X1.8031Y-1.4744
X1.8071Y-1.1614
X1.8091Y-3.0472
X1.9261Y-1.0037
X1.9261Y-1.1612
X1.9261Y-1.3187
X1.9261Y-1.4762
X1.9261Y-1.6337
X1.9261Y-1.7911
X1.9261Y-1.9486
X1.9261Y-2.1063
X1.9261Y-2.5785
X1.9261Y-2.736
X1.9291Y-2.2638
X1.9291Y-2.4213
X1.9291Y-3.0492
X1.9294Y-0.689
X1.9294Y-0.8465
X1.9467Y-2.8344
X1.9488Y-1.1004
X1.9497Y-0.6297
X1.9497Y-0.9447
X1.9497Y-1.2596
X1.9497Y-1.5746
X1.9497Y-1.8896
X1.9497Y-2.2045
X1.9497Y-2.5195
X1.9506Y-2.7911
X1.9518Y-1.0589
X1.9518Y-1.3738
X1.9518Y-1.6888
X1.9518Y-2.0018
X1.9518Y-2.6337
X1.953Y-0.7439
X1.9536Y-0.5864
X1.9536Y-0.9014
X1.9536Y-1.2163
X1.9536Y-1.5313
X1.9536Y-1.8463
X1.9536Y-2.1612
X1.9536Y-2.4762
X1.9551Y-2.3167
X1.9551Y-2.9467
X2.0709Y-2.1063
X2.0807Y-0.8445
X2.1041Y-2.8344
X2.1053Y-1.1022
X2.1053Y-1.4171
X2.1053Y-1.7321
X2.1053Y-2.0451
X2.1053Y-2.677
X2.1065Y-0.7872
X2.1072Y-0.6297
X2.1072Y-0.9447
X2.1072Y-1.2596
X2.1072Y-1.5746
X2.1072Y-1.8896
X2.1072Y-2.2045
X2.1072Y-2.5195
X2.1081Y-2.7911
X2.1087Y-2.36
X2.1087Y-2.99
X2.1093Y-1.0589
X2.1093Y-1.3738
X2.1093Y-1.6888
X2.1093Y-2.0018
X2.1093Y-2.6337
X2.1105Y-0.7439
X2.1111Y-0.5864
X2.1111Y-0.9014
X2.1111Y-1.2163
X2.1111Y-1.5313
X2.1111Y-1.8463
X2.1111Y-2.1612
X2.1111Y-2.4762
X2.1126Y-2.3167
X2.1126Y-2.9467
X2.2628Y-1.1022
X2.2628Y-1.7321
X2.2628Y-2.0451
X2.2628Y-2.677
X2.264Y-0.7872
X2.2647Y-0.6297
X2.2647Y-0.9447
X2.2647Y-1.2596
X2.2647Y-1.5746
X2.2647Y-1.8896
X2.2647Y-2.2045
X2.2647Y-2.5195
X2.2656Y-2.7911
X2.2661Y-2.36
X2.2661Y-2.99
X2.2667Y-1.0589
X2.2667Y-1.3738
X2.2667Y-1.6888
X2.2667Y-2.0018
X2.2667Y-2.6337
X2.268Y-0.7439
X2.2686Y-0.5864
X2.2686Y-0.9014
X2.2686Y-1.2163
X2.2686Y-1.8463
X2.2686Y-2.1612
X2.2686Y-2.4762
X2.2701Y-2.3167
X2.4154Y-0.8465
X2.4191Y-2.8344
X2.4193Y-3.0453
X2.4203Y-1.1022
X2.4203Y-1.4171
X2.4203Y-1.7321
X2.4203Y-2.0451
X2.4203Y-2.677
X2.4213Y-2.7382
X2.4215Y-0.7872
X2.4221Y-0.6297
X2.4221Y-0.9447
X2.4221Y-1.2596
X2.4221Y-1.5746
X2.4221Y-1.8896
X2.4221Y-2.2045
X2.4221Y-2.5195
X2.423Y-2.7911
X2.4236Y-2.36
X2.4236Y-2.99
X2.4242Y-1.0589
X2.4242Y-1.3738
X2.4242Y-1.6888
X2.4242Y-2.0018
X2.4242Y-2.6337
X2.4252Y-1.1614
X2.4254Y-0.7439
X2.4261Y-0.5864
X2.4261Y-0.9014
X2.4261Y-1.2163
X2.4261Y-1.5313
X2.4261Y-1.8463
X2.4261Y-2.1612
X2.4261Y-2.4762
X2.4276Y-2.3167
X2.4276Y-2.9467
X2.4311Y-1.4783
X2.435Y-2.1063
X2.435Y-2.4213
X2.437Y-1.7913
X2.556Y-1.0037
X2.556Y-1.1612
X2.556Y-1.3187
X2.556Y-1.4762
X2.556Y-1.6337
X2.556Y-1.7911
X2.556Y-1.9486
X2.556Y-2.1063
X2.556Y-2.5785
X2.556Y-2.736
X2.5591Y-2.2638
X2.5591Y-2.4213
X2.5591Y-2.8937
X2.5591Y-3.0492
X2.5594Y-0.689
X2.5594Y-0.8465
X2.5766Y-2.8344
X2.5796Y-0.6297
X2.5796Y-0.9447
X2.5796Y-1.2596
X2.5796Y-1.5746
X2.5796Y-1.8896
X2.5796Y-2.2045
X2.5796Y-2.5195
X2.5805Y-2.7911
X2.5817Y-1.0589
X2.5817Y-1.3738
X2.5817Y-1.6888
X2.5817Y-2.0018
X2.5817Y-2.6337
X2.5829Y-0.7439
X2.5836Y-0.5864
X2.5836Y-0.9014
X2.5836Y-1.2163
X2.5836Y-1.5313
X2.5836Y-1.8463
X2.5836Y-2.1612
X2.5836Y-2.4762
X2.585Y-2.3167
X2.585Y-2.9467
X2.7341Y-2.8344
X2.7352Y-1.1022
X2.7352Y-1.4171
X2.7352Y-1.7321
X2.7352Y-2.0451
X2.7352Y-2.677
X2.7365Y-0.7872
X2.7371Y-0.6297
X2.7371Y-0.9447
X2.7371Y-1.2596
X2.7371Y-1.5746
X2.7371Y-1.8896
X2.7371Y-2.2045
X2.7371Y-2.5195
X2.738Y-2.7911
X2.7386Y-2.36
X2.7386Y-2.99
X2.7392Y-1.0589
X2.7392Y-1.3738
X2.7392Y-1.6888
X2.7392Y-2.0018
X2.7392Y-2.6337
X2.7404Y-0.7439
X2.741Y-0.5864
X2.741Y-0.9014
X2.741Y-1.2163
X2.741Y-1.5313
X2.741Y-1.8463
X2.741Y-2.1612
X2.741Y-2.4762
X2.7425Y-2.3167
X2.7425Y-2.9467
X2.8915Y-2.8344
X2.8927Y-1.1022
X2.8927Y-1.4171
X2.8927Y-1.7321
X2.8927Y-2.0451
X2.8927Y-2.677
X2.8939Y-0.7872
X2.8946Y-0.6297
X2.8946Y-0.9447
X2.8946Y-1.2596
X2.8946Y-1.5746
X2.8946Y-1.8896
X2.8946Y-2.2045
X2.8946Y-2.5195
X2.8955Y-2.7911
X2.8961Y-2.36
X2.8961Y-2.99
X2.8967Y-1.0589
X2.8967Y-1.3738
X2.8967Y-1.6888
X2.8967Y-2.0018
X2.8967Y-2.6337
X2.8979Y-0.7439
X2.8985Y-0.5864
X2.8985Y-0.9014
X2.8985Y-1.2163
X2.8985Y-1.5313
X2.8985Y-1.8463
X2.8985Y-2.1612
X2.8985Y-2.4762
X2.9Y-2.3167
X2.9Y-2.9467
X3.0453Y-1.4783
X3.0472Y-2.4232
X3.049Y-2.8344
X3.0502Y-1.1022
X3.0502Y-1.4171
X3.0502Y-1.7321
X3.0502Y-2.677
X3.0512Y-1.7953
X3.0521Y-0.6297
X3.0521Y-0.9447
X3.0521Y-1.2596
X3.0521Y-1.5746
X3.0521Y-1.8896
X3.0521Y-2.2045
X3.0521Y-2.5195
X3.053Y-2.7911
X3.0535Y-2.36
X3.0535Y-2.99
X3.0541Y-1.0589
X3.0541Y-1.3738
X3.0541Y-1.6888
X3.0541Y-2.0018
X3.0541Y-2.6337
X3.0554Y-0.7439
X3.0558Y-2.7381
X3.056Y-0.5864
X3.056Y-1.2163
X3.056Y-1.5313
X3.056Y-1.8463
X3.056Y-2.4762
X3.0575Y-2.3167
X3.0575Y-2.9467
X3.0669Y-3.0512
X3.0709Y-1.1614
X3.1859Y-1.0037
X3.1859Y-1.1612
X3.1859Y-1.3187
X3.1859Y-1.4762
X3.1859Y-1.6337
X3.1859Y-1.7911
X3.1859Y-1.9486
X3.1859Y-2.1063
X3.1859Y-2.5785
X3.1859Y-2.736
X3.189Y-2.2638
X3.189Y-2.4213
X3.189Y-3.0492
X3.1893Y-0.689
X3.1893Y-0.8465
X3.1909Y-2.8917
X3.209Y-2.9703
X3.2095Y-0.6297
X3.2095Y-0.9447
X3.2095Y-1.2596
X3.2095Y-1.5746
X3.2095Y-1.8896
X3.2095Y-2.2045
X3.2095Y-2.5195
X3.2106Y-2.813
X3.2116Y-1.0589
X3.2116Y-1.3738
X3.2116Y-1.6888
X3.2116Y-2.0018
X3.2116Y-2.6337
X3.2128Y-0.7439
X3.2135Y-0.5864
X3.2135Y-0.9014
X3.2135Y-1.2163
X3.2135Y-1.5313
X3.2135Y-1.8463
X3.2135Y-2.1612
X3.2135Y-2.4762
X3.215Y-2.3167
X3.3071Y-2.1063
X3.3524Y-0.8465
X3.364Y-2.8344
X3.3652Y-1.1022
X3.3652Y-1.4171
X3.3652Y-1.7321
X3.3652Y-2.0451
X3.3652Y-2.677
X3.3664Y-0.7872
X3.367Y-0.6297
X3.367Y-0.9447
X3.367Y-1.2596
X3.367Y-1.5746
X3.367Y-1.8896
X3.367Y-2.2045
X3.367Y-2.5195
X3.3679Y-2.7911
X3.3685Y-2.36
X3.3685Y-2.99
X3.3691Y-1.0589
X3.3691Y-1.3738
X3.3691Y-1.6888
X3.3691Y-2.0018
X3.3691Y-2.6337
X3.3703Y-0.7439
X3.371Y-0.5864
X3.371Y-0.9014
X3.371Y-1.2163
X3.371Y-1.5313
X3.371Y-1.8463
X3.371Y-2.1612
X3.371Y-2.4762
X3.3724Y-2.3167
X3.3724Y-2.9467
X3.5226Y-1.1022
X3.5226Y-1.7321
X3.5226Y-2.0451
X3.5226Y-2.677
X3.5239Y-0.7872
X3.5245Y-0.6297
X3.5245Y-0.9447
X3.5245Y-1.2596
X3.5245Y-1.5746
X3.5245Y-1.8896
X3.5245Y-2.2045
X3.5245Y-2.5195
X3.5254Y-2.7911
X3.526Y-2.36
X3.526Y-2.99
X3.5266Y-1.0589
X3.5266Y-1.3738
X3.5266Y-1.6888
X3.5266Y-2.0018
X3.5266Y-2.6337
X3.5278Y-0.7439
X3.5284Y-0.5864
X3.5284Y-0.9014
X3.5284Y-1.2163
X3.5284Y-1.8463
X3.5284Y-2.1612
X3.5284Y-2.4762
X3.5299Y-2.3167
X3.6781Y-1.0037
X3.6781Y-1.3187
X3.6781Y-1.6337
X3.6789Y-2.8344
X3.6801Y-1.1022
X3.6801Y-1.4171
X3.6801Y-1.7321
X3.6801Y-2.0451
X3.6801Y-2.677
X3.6811Y-2.2638
X3.6811Y-2.8937
X3.6813Y-0.7872
X3.6814Y-0.689
X3.682Y-0.6297
X3.682Y-0.9447
X3.682Y-1.2596
X3.682Y-1.5746
X3.682Y-1.8896
X3.682Y-2.2045
X3.682Y-2.5195
X3.6829Y-2.7911
X3.6835Y-2.36
X3.6835Y-2.99
X3.6841Y-1.0589
X3.6841Y-1.3738
X3.6841Y-1.6888
X3.6841Y-1.9486
X3.6841Y-2.0018
X3.6841Y-2.5785
X3.6841Y-2.6337
X3.6853Y-0.7439
X3.6859Y-0.5864
X3.6859Y-0.9014
X3.6859Y-1.2163
X3.6859Y-1.5313
X3.6859Y-1.8463
X3.6859Y-2.1612
X3.6859Y-2.4762
X3.6874Y-2.3167
X3.6874Y-2.9467
T2
X0.7844Y-1.4762
X0.7874Y-2.8937
X1.0002Y-1.4762
X1.0039Y-2.8937
X1.4956Y-0.8443
X1.4961Y-2.0965
X1.7076Y-2.0965
X1.71Y-0.8465
X1.9397Y-2.8937
X2.1078Y-1.4762
X2.1555Y-2.8937
X2.3296Y-1.4762
X2.7332Y-2.1063
X2.7493Y-0.8563
X2.9451Y-2.1063
X2.9658Y-0.8563
X3.3366Y-2.8937
X3.3678Y-1.4665
X3.563Y-2.8937
X3.5897Y-1.4665
T3
X0.3937Y-2.0866
X0.3937Y-2.1654
X0.3937Y-2.2441
X0.3937Y-2.3228
X0.3937Y-2.4016
X0.3937Y-2.4803
X0.3937Y-2.5591
X0.3937Y-2.6378
T4
X3.9765Y-2.4819
X3.9765Y-2.6378
T5
X0.4331Y-0.6299
X0.4331Y-2.9528
X3.9764Y-0.6299
X3.9764Y-2.9528
M30
